<svg width="283" height="285" viewBox="0 0 283 285" fill="none" xmlns="http://www.w3.org/2000/svg">
<path d="M58.4309 153.575L35.5171 224.058L90.9925 236.654L113.906 165.572L94.6105 158.374L58.4309 153.575Z" fill="#00D930"/>
<path d="M125.157 168.315L102.516 240.609L263.381 284.224L282.745 221.191L194.269 179.966L125.157 168.315Z" fill="#00D930"/>
<path d="M87.1065 32.9766L0.677368 110.799L78.4933 134.146L87.1065 32.9766Z" fill="#00D930"/>
<path d="M90.4565 136.319L98.9867 26.3867L126.636 8.85693L120.165 142.856L90.4565 136.319Z" fill="#00D930"/>
<path d="M182.865 0.816895H147.245L143.386 101.986H190.286L182.865 0.816895Z" fill="#00D930"/>
<path d="M143.386 109.356V146.809L194.305 157.595L190.711 112.352L143.386 109.356Z" fill="#00D930"/>
<path d="M213.813 163.495L211.725 132.136H265.995L243.929 177.695L213.813 163.495Z" fill="#00D930"/>
<path d="M161.671 238.153C160.591 237.899 159.457 237.502 158.269 236.96C157.123 236.429 156.083 235.725 155.149 234.848C154.225 233.93 153.551 232.786 153.127 231.416C152.755 230.014 152.793 228.357 153.241 226.446C153.777 224.162 154.719 222.389 156.067 221.127C157.415 219.866 159.1 219.034 161.122 218.632C163.196 218.198 165.56 218.117 168.213 218.389C170.867 218.661 173.751 219.162 176.866 219.893L177.436 217.463C177.661 216.507 177.689 215.637 177.523 214.853C177.398 214.079 176.989 213.392 176.297 212.791C175.647 212.2 174.636 211.744 173.266 211.422C171.895 211.101 170.734 211.004 169.784 211.132C168.875 211.269 168.171 211.564 167.67 212.016C167.221 212.437 166.923 212.959 166.777 213.582L166.602 214.329L158.19 212.356C158.197 212.139 158.22 211.947 158.259 211.781C158.308 211.573 158.366 211.324 158.435 211.033C158.883 209.122 159.849 207.618 161.334 206.52C162.828 205.38 164.723 204.685 167.016 204.435C169.31 204.184 171.87 204.39 174.694 205.052C177.727 205.764 180.168 206.753 182.018 208.019C183.91 209.296 185.216 210.829 185.935 212.62C186.696 214.42 186.804 216.483 186.258 218.809L182.765 233.701C182.589 234.448 182.666 235.058 182.993 235.529C183.372 235.969 183.832 236.252 184.372 236.378L186.428 236.861L185.098 242.531C184.634 242.641 183.941 242.698 183.02 242.701C182.089 242.745 181.001 242.622 179.755 242.329C178.55 242.047 177.514 241.606 176.646 241.008C175.81 240.462 175.154 239.804 174.677 239.035C174.21 238.224 173.959 237.332 173.924 236.36L173.488 236.258C172.577 236.964 171.524 237.528 170.33 237.949C169.177 238.38 167.871 238.621 166.413 238.674C164.996 238.736 163.415 238.562 161.671 238.153ZM166.134 232.297C167.297 232.57 168.374 232.648 169.366 232.53C170.368 232.37 171.248 232.073 172.008 231.637C172.777 231.161 173.43 230.525 173.967 229.73C174.545 228.946 174.952 228.055 175.186 227.058L175.609 225.251C173.283 224.706 171.167 224.384 169.262 224.288C167.366 224.15 165.79 224.328 164.535 224.823C163.321 225.327 162.558 226.243 162.246 227.573C162.071 228.32 162.107 229.008 162.354 229.636C162.601 230.263 163.043 230.806 163.681 231.262C164.319 231.718 165.137 232.064 166.134 232.297ZM189.329 243.852L197.017 211.078L204.183 212.759L203.669 218.029L204.106 218.131C204.774 217.148 205.543 216.299 206.413 215.583C207.292 214.825 208.293 214.293 209.417 213.986C210.54 213.68 211.767 213.683 213.096 213.995C213.802 214.161 214.426 214.395 214.969 214.697C215.521 214.958 215.928 215.185 216.19 215.378L214.348 223.229L211.669 222.6C210.381 222.298 209.195 222.217 208.11 222.357C207.077 222.465 206.14 222.815 205.3 223.407C204.46 223.999 203.747 224.796 203.162 225.798C202.618 226.81 202.175 228.043 201.834 229.497L197.99 245.884L189.329 243.852ZM215.61 262.376C214.156 262.035 212.858 261.401 211.716 260.476C210.565 259.593 209.731 258.477 209.215 257.128C208.698 255.78 208.63 254.296 209.01 252.676C209.439 250.848 210.299 249.516 211.591 248.68C212.934 247.812 214.334 247.263 215.79 247.035C214.961 246.271 214.337 245.38 213.919 244.361C213.542 243.353 213.49 242.267 213.763 241.104C214.143 239.484 215.031 238.312 216.428 237.587C217.877 236.832 219.403 236.488 221.008 236.558C219.696 235.242 218.774 233.755 218.242 232.097C217.762 230.406 217.737 228.647 218.165 226.82C218.721 224.452 219.77 222.594 221.313 221.247C222.898 219.91 224.888 219.084 227.285 218.77C229.733 218.423 232.473 218.606 235.505 219.317C236.71 219.6 237.817 219.925 238.826 220.294C239.877 220.672 240.804 221.108 241.608 221.604C243.359 221.05 244.632 220.297 245.425 219.344C246.27 218.358 246.791 217.538 246.988 216.884L255.026 218.769C254.666 220.306 254.063 221.567 253.218 222.552C252.415 223.547 251.407 224.297 250.193 224.801C248.989 225.263 247.621 225.49 246.089 225.481C246.955 226.649 247.527 227.944 247.807 229.368C248.086 230.793 248.05 232.252 247.7 233.748C247.154 236.074 246.125 237.936 244.614 239.335C243.113 240.692 241.221 241.563 238.939 241.948C236.699 242.343 234.146 242.204 231.28 241.532L226.295 240.362C225.298 240.128 224.507 240.14 223.921 240.397C223.344 240.612 222.978 241.052 222.822 241.717C222.696 242.257 222.791 242.783 223.109 243.296C223.478 243.777 224.161 244.135 225.158 244.368L238.804 247.569C241.546 248.213 243.527 249.576 244.747 251.659C246.019 253.71 246.348 256.044 245.734 258.661C245.266 260.655 244.333 262.299 242.934 263.592C241.535 264.885 239.819 265.754 237.787 266.197C235.754 266.641 233.554 266.585 231.187 266.03L215.61 262.376ZM220.583 257.429L232.11 260.133C232.858 260.308 233.556 260.319 234.206 260.164C234.846 260.051 235.391 259.785 235.84 259.364C236.279 258.985 236.572 258.484 236.718 257.861C236.972 256.781 236.829 255.893 236.292 255.197C235.754 254.501 234.986 254.036 233.989 253.803L222.088 251.011C221.091 250.777 220.192 250.873 219.391 251.298C218.632 251.734 218.14 252.429 217.916 253.385C217.692 254.34 217.823 255.182 218.31 255.909C218.828 256.688 219.586 257.195 220.583 257.429ZM231.661 235.704C233.696 236.182 235.34 236.086 236.593 235.415C237.897 234.713 238.754 233.49 239.163 231.745C239.573 230.001 239.344 228.545 238.479 227.377C237.664 226.178 236.24 225.34 234.204 224.863C232.21 224.395 230.561 224.512 229.257 225.214C228.004 225.885 227.173 227.092 226.764 228.837C226.501 229.958 226.5 230.988 226.762 231.926C227.024 232.864 227.564 233.648 228.38 234.278C229.197 234.907 230.29 235.383 231.661 235.704Z" fill="white"/>
</svg>
