<svg width="145" height="145" viewBox="0 0 145 145" fill="none" xmlns="http://www.w3.org/2000/svg">
<g id="Arg">
<path id="Vector 13" d="M29.8429 78.2233L18.133 114.23L46.4834 120.665L58.1934 84.352L48.3324 80.6748L29.8429 78.2233Z" fill="#00D930"/>
<path id="Vector 14" d="M63.9428 85.7532L52.3726 122.685L134.582 144.966L144.477 112.765L99.2623 91.705L63.9428 85.7532Z" fill="#00D930"/>
<path id="Vector 19" d="M44.4975 16.6147L0.328293 56.3707L40.0957 68.2974L44.4975 16.6147Z" fill="#00D930"/>
<path id="Vector 29" d="M46.2095 69.4078L50.5688 13.2483L64.6989 4.29309L61.3919 72.747L46.2095 69.4078Z" fill="#00D930"/>
<path id="Vector 30" d="M93.4342 0.185852H75.2309L73.2588 51.8685H97.2266L93.4342 0.185852Z" fill="#00D930"/>
<path id="Vector 31" d="M73.2588 55.6335V74.7666L99.281 80.2769L97.4441 57.1641L73.2588 55.6335Z" fill="#00D930"/>
<path id="Vector 32" d="M109.25 83.2906L108.183 67.2706H135.917L124.641 90.545L109.25 83.2906Z" fill="#00D930"/>
<g id="arg">
<path d="M82.603 121.43C82.0511 121.301 81.4717 121.098 80.8647 120.821C80.2789 120.549 79.7474 120.19 79.2702 119.742C78.7979 119.273 78.4536 118.688 78.2371 117.988C78.0468 117.272 78.0663 116.426 78.2953 115.45C78.5692 114.283 79.0505 113.377 79.7393 112.732C80.428 112.088 81.2892 111.663 82.3229 111.458C83.3827 111.236 84.5906 111.195 85.9466 111.333C87.3026 111.472 88.7767 111.728 90.3688 112.102L90.6601 110.86C90.7747 110.372 90.7893 109.928 90.7042 109.527C90.6402 109.132 90.4315 108.781 90.0779 108.474C89.7456 108.172 89.2292 107.939 88.5287 107.775C87.8281 107.61 87.235 107.561 86.7494 107.626C86.285 107.696 85.9249 107.847 85.6691 108.078C85.4395 108.293 85.2874 108.559 85.2127 108.878L85.1231 109.26L80.8243 108.252C80.828 108.141 80.8398 108.043 80.8597 107.958C80.8846 107.852 80.9145 107.724 80.9493 107.576C81.1784 106.6 81.6723 105.831 82.431 105.27C83.1947 104.688 84.1627 104.333 85.335 104.205C86.5073 104.077 87.8152 104.182 89.2587 104.521C90.8084 104.884 92.056 105.389 93.0016 106.036C93.9684 106.688 94.6356 107.472 95.0033 108.386C95.3922 109.306 95.4473 110.36 95.1684 111.548L93.3832 119.156C93.2935 119.538 93.3324 119.849 93.4999 120.09C93.6936 120.314 93.9284 120.459 94.2044 120.524L95.2552 120.77L94.5754 123.667C94.3383 123.723 93.9843 123.752 93.5136 123.753C93.038 123.776 92.4817 123.713 91.8448 123.564C91.2292 123.419 90.6997 123.194 90.2563 122.889C89.8291 122.61 89.4936 122.273 89.2499 121.881C89.0111 121.466 88.8829 121.011 88.865 120.514L88.6421 120.462C88.1767 120.823 87.6388 121.111 87.0284 121.326C86.4392 121.546 85.772 121.669 85.0266 121.696C84.3025 121.728 83.4946 121.639 82.603 121.43ZM84.884 118.439C85.4783 118.578 86.029 118.618 86.5358 118.558C87.0477 118.476 87.4977 118.324 87.8858 118.102C88.2789 117.858 88.6127 117.533 88.8871 117.128C89.1827 116.727 89.3903 116.272 89.5098 115.762L89.7264 114.839C88.5376 114.56 87.4563 114.396 86.4824 114.347C85.5135 114.277 84.7083 114.368 84.0667 114.62C83.4464 114.878 83.0565 115.346 82.8972 116.025C82.8075 116.407 82.8259 116.758 82.9522 117.079C83.0785 117.4 83.3047 117.677 83.6307 117.91C83.9567 118.143 84.3745 118.319 84.884 118.439Z" fill="white"/>
<path d="M96.7377 124.342L100.667 107.599L104.329 108.457L104.066 111.15L104.289 111.202C104.631 110.7 105.024 110.266 105.468 109.9C105.917 109.513 106.429 109.241 107.003 109.085C107.578 108.928 108.204 108.93 108.884 109.089C109.245 109.174 109.564 109.293 109.841 109.448C110.123 109.581 110.331 109.697 110.465 109.795L109.524 113.806L108.154 113.485C107.496 113.331 106.89 113.289 106.336 113.361C105.808 113.416 105.329 113.595 104.9 113.897C104.47 114.2 104.106 114.607 103.807 115.119C103.529 115.635 103.303 116.265 103.128 117.008L101.164 125.379L96.7377 124.342Z" fill="white"/>
<path d="M110.168 133.804C109.425 133.63 108.762 133.307 108.179 132.834C107.59 132.383 107.164 131.813 106.9 131.124C106.636 130.435 106.602 129.677 106.796 128.849C107.015 127.916 107.455 127.235 108.115 126.808C108.801 126.364 109.516 126.084 110.26 125.968C109.837 125.577 109.518 125.122 109.304 124.602C109.112 124.086 109.085 123.532 109.225 122.938C109.419 122.11 109.873 121.511 110.587 121.141C111.327 120.755 112.107 120.58 112.927 120.615C112.256 119.943 111.785 119.183 111.514 118.336C111.268 117.473 111.255 116.574 111.474 115.64C111.758 114.431 112.295 113.482 113.083 112.794C113.893 112.111 114.91 111.689 116.135 111.528C117.386 111.351 118.786 111.445 120.336 111.808C120.951 111.952 121.517 112.118 122.033 112.307C122.57 112.5 123.044 112.723 123.455 112.976C124.35 112.693 125 112.308 125.405 111.821C125.837 111.318 126.103 110.899 126.204 110.565L130.312 111.528C130.128 112.313 129.82 112.957 129.388 113.46C128.978 113.969 128.462 114.352 127.842 114.609C127.227 114.845 126.527 114.961 125.745 114.957C126.187 115.553 126.48 116.215 126.622 116.943C126.765 117.67 126.747 118.416 126.568 119.18C126.289 120.368 125.763 121.319 124.991 122.034C124.224 122.727 123.257 123.172 122.091 123.369C120.946 123.57 119.641 123.5 118.177 123.156L115.629 122.559C115.12 122.439 114.715 122.445 114.416 122.576C114.121 122.686 113.934 122.911 113.854 123.251C113.79 123.527 113.838 123.796 114.001 124.058C114.19 124.303 114.539 124.486 115.048 124.605L122.022 126.241C123.423 126.569 124.435 127.265 125.059 128.33C125.709 129.378 125.877 130.57 125.563 131.907C125.324 132.925 124.847 133.765 124.132 134.426C123.417 135.087 122.541 135.53 121.502 135.757C120.463 135.983 119.339 135.955 118.129 135.671L110.168 133.804ZM112.71 131.277L118.601 132.659C118.983 132.748 119.34 132.754 119.672 132.675C119.999 132.617 120.277 132.481 120.507 132.266C120.732 132.072 120.881 131.816 120.956 131.498C121.085 130.946 121.013 130.493 120.738 130.137C120.463 129.782 120.071 129.544 119.561 129.425L113.479 127.999C112.97 127.879 112.51 127.928 112.101 128.146C111.713 128.368 111.461 128.723 111.347 129.211C111.232 129.699 111.299 130.129 111.548 130.501C111.813 130.899 112.2 131.158 112.71 131.277ZM118.371 120.179C119.411 120.423 120.252 120.374 120.892 120.032C121.558 119.673 121.996 119.048 122.205 118.157C122.415 117.266 122.298 116.522 121.856 115.925C121.439 115.313 120.711 114.885 119.671 114.641C118.652 114.402 117.809 114.462 117.143 114.82C116.503 115.163 116.078 115.78 115.869 116.671C115.734 117.244 115.734 117.77 115.868 118.249C116.002 118.728 116.277 119.129 116.695 119.45C117.112 119.772 117.671 120.015 118.371 120.179Z" fill="white"/>
</g>
</g>
</svg>
