<svg width="97" height="79" viewBox="0 0 97 79" fill="none" xmlns="http://www.w3.org/2000/svg">
<g id="Br">
<path id="Vector 10" d="M5.52081 78.3286L0.201435 3.37158H26.7983L29.99 76.802L5.52081 78.3286Z" fill="#FDA014"/>
<path id="Vector 11" d="M37.2092 76.9595L33.4139 2.49538L75.7688 0.975708L96.4149 8.27015L37.2092 76.9595Z" fill="#FDA014"/>
<g id="br">
<path d="M52.2977 32.1696C51.1857 32.1806 50.1588 31.9727 49.2169 31.5461C48.2967 31.0974 47.5486 30.4181 46.9727 29.5083L46.7437 29.5106L46.4068 31.8353L42.6784 31.872L42.4454 8.23491L46.9915 8.19012L47.0736 16.5269L47.2699 16.5249C47.6138 16.0202 48.0348 15.591 48.5328 15.2373C49.0309 14.8837 49.5953 14.6274 50.2261 14.4686C50.8567 14.2881 51.5426 14.1941 52.2839 14.1868C53.6357 14.1735 54.8163 14.4779 55.8254 15.1001C56.8564 15.7221 57.6619 16.695 58.2419 18.019C58.8217 19.3211 59.1218 21.0075 59.1422 23.078C59.1626 25.1486 58.896 26.8514 58.3422 28.1865C57.8102 29.5214 57.0241 30.521 55.984 31.1851C54.9655 31.8273 53.7367 32.1555 52.2977 32.1696ZM50.8546 28.4565C51.7703 28.4475 52.4881 28.266 53.008 27.9121C53.5494 27.5362 53.9365 26.9875 54.1693 26.2659C54.402 25.5443 54.513 24.6386 54.5023 23.5488L54.4949 22.7969C54.4841 21.7071 54.3553 20.8038 54.1084 20.0869C53.8612 19.3482 53.4634 18.8072 52.9148 18.4638C52.3879 18.0984 51.6666 17.9203 50.7508 17.9293C50.0967 17.9357 49.5419 18.0611 49.0864 18.3053C48.6307 18.5278 48.2523 18.8585 47.9514 19.2974C47.672 19.7143 47.4591 20.2396 47.3127 20.8731C47.1663 21.5067 47.0969 22.2049 47.1044 22.9677L47.1102 23.5562C47.1203 24.5806 47.2599 25.462 47.5288 26.2005C47.7977 26.939 48.2067 27.5017 48.7557 27.8886C49.3046 28.2756 50.0043 28.4649 50.8546 28.4565Z" fill="white"/>
<path d="M62.5763 31.676L62.4068 14.4794L66.1679 14.4424L66.5541 17.1197L66.783 17.1174C66.9954 16.5486 67.2738 16.0336 67.6182 15.5725C67.9623 15.0895 68.3946 14.7038 68.9151 14.4153C69.4356 14.1268 70.0447 13.9792 70.7424 13.9723C71.1131 13.9686 71.4515 14.0089 71.7576 14.0931C72.0635 14.1554 72.2931 14.2186 72.4463 14.2825L72.4869 18.4018L71.0806 18.4157C70.4047 18.4223 69.8061 18.5263 69.2847 18.7276C68.7849 18.9069 68.3626 19.1944 68.0176 19.5902C67.6726 19.9859 67.4157 20.468 67.2468 21.0364C67.0998 21.6046 67.03 22.2701 67.0376 23.033L67.1223 31.6313L62.5763 31.676Z" fill="white"/>
</g>
</g>
</svg>
