<svg width="189" height="153" viewBox="0 0 189 153" fill="none" xmlns="http://www.w3.org/2000/svg">
<path d="M10.9385 152.362L0.529663 5.63379H52.5738L58.8191 149.374L10.9385 152.362Z" fill="#FDA014"/>
<path d="M72.9455 149.683L65.519 3.91911L148.398 0.944336L188.798 15.2232L72.9455 149.683Z" fill="#FDA014"/>
<path d="M102.47 62.0063C100.294 62.0277 98.2849 61.6208 96.4419 60.7856C94.6412 59.9073 93.1774 58.5777 92.0504 56.7967L91.6024 56.8011L90.9433 61.3518L83.6476 61.4237L83.1917 15.154L92.0872 15.0663L92.248 31.3855L92.632 31.3817C93.305 30.3937 94.1287 29.5536 95.1033 28.8613C96.0779 28.169 97.1823 27.6674 98.4166 27.3565C99.6506 27.003 100.993 26.8191 102.443 26.8048C105.089 26.7788 107.399 27.3747 109.373 28.5926C111.391 29.8101 112.967 31.7147 114.102 34.3063C115.236 36.8553 115.824 40.1563 115.864 44.2094C115.903 48.2626 115.382 51.5959 114.298 54.2093C113.257 56.8224 111.719 58.779 109.684 60.0791C107.691 61.3361 105.286 61.9785 102.47 62.0063ZM99.6465 54.7377C101.438 54.7201 102.843 54.3649 103.86 53.6722C104.92 52.9364 105.677 51.8622 106.133 50.4496C106.588 49.0371 106.805 47.2642 106.784 45.1309L106.77 43.659C106.749 41.5258 106.497 39.7575 106.013 38.3542C105.53 36.9082 104.751 35.8492 103.678 35.1771C102.647 34.4619 101.235 34.1131 99.4434 34.1307C98.1635 34.1434 97.0779 34.3887 96.1865 34.8669C95.2948 35.3023 94.5545 35.9497 93.9656 36.8089C93.4189 37.6249 93.0024 38.6531 92.7159 39.8933C92.4294 41.1335 92.2936 42.5003 92.3083 43.9935L92.3196 45.1455C92.3394 47.1507 92.6124 48.8761 93.1387 50.3217C93.6649 51.7672 94.4652 52.8687 95.5394 53.6262C96.6135 54.3836 97.9826 54.7541 99.6465 54.7377ZM122.583 61.04L122.252 27.3777L129.611 27.3051L130.367 32.546L130.815 32.5415C131.231 31.4281 131.775 30.42 132.449 29.5173C133.122 28.5719 133.968 27.8169 134.987 27.2522C136.005 26.6874 137.197 26.3984 138.563 26.3849C139.288 26.3778 139.95 26.4566 140.549 26.6213C141.148 26.7434 141.597 26.867 141.897 26.9921L141.976 35.0557L139.224 35.0828C137.902 35.0958 136.73 35.2994 135.71 35.6935C134.732 36.0444 133.906 36.6073 133.231 37.382C132.556 38.1567 132.053 39.1003 131.722 40.213C131.435 41.3252 131.298 42.6279 131.313 44.1212L131.479 60.9524L122.583 61.04Z" fill="white"/>
</svg>
