<svg width="126" height="115" viewBox="0 0 126 115" fill="none" xmlns="http://www.w3.org/2000/svg">
<g id="Extra">
<path id="Vector 23" d="M12.6989 36.9998L1.5919 34.73L0.715027 49.1054L12.6989 41.6907V36.9998Z" fill="#EBFF00"/>
<path id="Vector 25" d="M41.4602 40.5486H19.4647L18.862 39.6484L19.4647 29.596H40.255L41.4602 40.5486Z" fill="#EBFF00"/>
<path id="Vector 26" d="M27.0796 24.8042H18.862L17.8348 0.160828L27.0796 0.769307V24.8042Z" fill="#EBFF00"/>
<path id="Vector 27" d="M40.4331 2.67996L33.2427 0.845398V23.7775H40.4331V2.67996Z" fill="#EBFF00"/>
<path id="Vector 28" d="M68.2498 0.845398L45.2265 2.67084L47.2219 40.5487L71.9335 38.2669L68.2498 0.845398Z" fill="#EBFF00"/>
<path id="Vector 24" d="M56.116 113.066L54.4377 86.9239L80.0701 88.9113L116.688 69.8013L125.69 81.2673L88.7669 114.137L56.116 113.066Z" fill="#EBFF00"/>
</g>
</svg>
