<svg width="340" height="203" viewBox="0 0 340 203" fill="none" xmlns="http://www.w3.org/2000/svg">
<path d="M25.5206 191.329L20.2012 116.372H46.7981L49.9897 189.802L25.5206 191.329Z" fill="#EBFF00"/>
<path d="M57.2093 189.96L53.4141 115.495L95.769 113.976L116.415 121.27L57.2093 189.96Z" fill="#EBFF00"/>
<path d="M72.2975 145.17C71.1856 145.181 70.1587 144.973 69.2168 144.546C68.2965 144.097 67.5485 143.418 66.9725 142.508L66.7436 142.51L66.4067 144.835L62.6783 144.872L62.4453 121.235L66.9913 121.19L67.0735 129.527L67.2698 129.525C67.6137 129.02 68.0347 128.591 68.5327 128.237C69.0307 127.884 69.5952 127.627 70.226 127.469C70.8565 127.288 71.5425 127.194 72.2838 127.187C73.6356 127.173 74.8161 127.478 75.8253 128.1C76.8563 128.722 77.6618 129.695 78.2418 131.019C78.8216 132.321 79.1217 134.007 79.1421 136.078C79.1625 138.149 78.8958 139.851 78.3421 141.186C77.8101 142.521 77.024 143.521 75.9839 144.185C74.9654 144.827 73.7366 145.155 72.2975 145.17ZM70.8545 141.456C71.7702 141.447 72.488 141.266 73.0079 140.912C73.5493 140.536 73.9364 139.987 74.1691 139.266C74.4019 138.544 74.5129 137.639 74.5022 136.549L74.4947 135.797C74.484 134.707 74.3552 133.804 74.1082 133.087C73.8611 132.348 73.4633 131.807 72.9147 131.464C72.3878 131.098 71.6665 130.92 70.7507 130.929C70.0966 130.936 69.5418 131.061 69.0863 131.305C68.6306 131.528 68.2522 131.858 67.9513 132.297C67.6719 132.714 67.459 133.239 67.3126 133.873C67.1662 134.507 67.0968 135.205 67.1043 135.968L67.1101 136.556C67.1202 137.581 67.2597 138.462 67.5287 139.2C67.7976 139.939 68.2066 140.502 68.7555 140.889C69.3045 141.276 70.0041 141.465 70.8545 141.456Z" fill="#EBFF00"/>
<path d="M82.5762 144.676L82.4066 127.479L86.1678 127.442L86.5539 130.12L86.7829 130.117C86.9953 129.549 87.2737 129.034 87.6181 128.572C87.9622 128.089 88.3945 127.704 88.915 127.415C89.4355 127.127 90.0446 126.979 90.7423 126.972C91.113 126.969 91.4514 127.009 91.7575 127.093C92.0634 127.155 92.2929 127.219 92.4462 127.282L92.4868 131.402L91.0805 131.416C90.4046 131.422 89.8059 131.526 89.2846 131.728C88.7848 131.907 88.3625 132.194 88.0175 132.59C87.6725 132.986 87.4156 133.468 87.2467 134.036C87.0997 134.605 87.0299 135.27 87.0374 136.033L87.1222 144.631L82.5762 144.676Z" fill="#EBFF00"/>
<path d="M2.39648 104.392V89.8827L57.5224 88.6478V104.392H2.39648Z" fill="#EBFF00"/>
<path d="M0 58.5443L2.1418 83.1715H57.5227L55.0749 57.1591L0 58.5443Z" fill="#EBFF00"/>
<path d="M10.3234 62.1837L10.2943 59.2413L13.7039 59.2078L13.7329 62.1501L10.3234 62.1837ZM10.441 81.5797C10.212 81.5819 9.95022 81.5681 9.65555 81.5384C9.37723 81.5084 9.09876 81.4621 8.82012 81.3994C8.54164 81.3531 8.31206 81.29 8.13137 81.2101L8.10938 78.9787L9.33582 78.9667C9.71193 78.963 9.99706 78.8539 10.1912 78.6395C10.3855 78.4414 10.4807 78.1462 10.4768 77.7538L10.342 64.0718L13.7515 64.0382L13.889 77.99C13.8955 78.6438 13.7869 79.2416 13.5633 79.7833C13.356 80.3248 13.0004 80.7534 12.4966 81.069C12.0092 81.4007 11.324 81.571 10.441 81.5797Z" fill="#EBFF00"/>
<path d="M16.9797 81.27L16.8096 64.0081L19.6059 63.9805L19.9174 65.7185L20.0891 65.7168C20.5073 65.0097 21.0582 64.4893 21.7418 64.1556C22.4254 63.8219 23.1842 63.651 24.0182 63.6428C25.0975 63.6321 26.0237 63.8601 26.797 64.3265C27.5866 64.7929 28.1907 65.5226 28.6093 66.5157C29.0443 67.5086 29.2696 68.7898 29.285 70.359C29.3 71.8793 29.0998 73.14 28.6845 74.1414C28.2692 75.1427 27.6796 75.8923 26.9159 76.3903C26.1683 76.8718 25.2876 77.1175 24.2738 77.1275C23.7178 77.133 23.202 77.0726 22.7265 76.9465C22.2512 76.8368 21.8241 76.653 21.4454 76.3952C21.0668 76.1373 20.7447 75.8217 20.4794 75.4483L20.3322 75.4498L20.3893 81.2364L16.9797 81.27ZM23.0688 74.3438C23.7556 74.3371 24.294 74.201 24.6839 73.9356C25.0899 73.6536 25.3803 73.2421 25.5548 72.7009C25.7292 72.1433 25.8125 71.464 25.8046 70.6631L25.799 70.0991C25.791 69.2818 25.6943 68.6043 25.5091 68.0666C25.3238 67.5126 25.0254 67.1068 24.614 66.8493C24.2188 66.5753 23.6778 66.4417 22.991 66.4484C22.3532 66.4547 21.8314 66.607 21.4255 66.9052C21.0196 67.2035 20.7212 67.6315 20.5305 68.1892C20.3397 68.7469 20.2482 69.4181 20.256 70.2027L20.2601 70.6196C20.2657 71.1917 20.3281 71.7142 20.4472 72.1872C20.5662 72.6437 20.7336 73.0344 20.9494 73.3593C21.1816 73.684 21.4702 73.9345 21.8154 74.1109C22.1604 74.271 22.5782 74.3487 23.0688 74.3438Z" fill="#EBFF00"/>
<path d="M31.8601 76.7585L31.733 63.861L34.5538 63.8333L34.841 65.596L35.0127 65.5943C35.3029 65.1664 35.6508 64.7952 36.0566 64.4806C36.4787 64.1658 36.9506 63.9241 37.4722 63.7555C37.9939 63.5868 38.5655 63.4995 39.1869 63.4934C40.0372 63.485 40.7828 63.6329 41.4236 63.9372C42.0644 64.2415 42.5598 64.7271 42.9098 65.3939C43.2762 66.0606 43.4647 66.9334 43.4753 68.0122L43.5604 76.6432L40.1509 76.6768L40.0711 68.5853C40.0671 68.1766 40.0146 67.8338 39.9138 67.5569C39.8128 67.2636 39.6633 67.028 39.4653 66.8502C39.2834 66.6558 39.0531 66.5191 38.7743 66.4401C38.4955 66.3611 38.1844 66.3233 37.841 66.3267C37.3341 66.3317 36.8774 66.4588 36.471 66.708C36.0646 66.9572 35.7491 67.2955 35.5243 67.7227C35.2996 68.15 35.1899 68.6415 35.1954 69.1973L35.2696 76.7249L31.8601 76.7585Z" fill="#EBFF00"/>
<path d="M59.5771 25.3306L64.8858 103.365H92.4908L94.1592 23.9589L59.5771 25.3306Z" fill="#EBFF00"/>
<path d="M63.1894 51.3705L62.9561 27.7007L67.5021 27.6559L67.6365 41.2889L73.5837 34.0698L78.9146 34.0173L73.0941 40.8101L79.3785 51.211L74.1784 51.2622L70.1495 44.0434L67.6877 46.4871L67.7354 51.3257L63.1894 51.3705Z" fill="#EBFF00"/>
<path d="M81.8416 51.1868L81.6721 33.9902L85.4332 33.9531L85.8194 36.6304L86.0483 36.6282C86.2608 36.0593 86.5392 35.5443 86.8835 35.0832C87.2277 34.6003 87.66 34.2146 88.1805 33.9261C88.7009 33.6376 89.31 33.4899 90.0078 33.483C90.3784 33.4794 90.7168 33.5196 91.0229 33.6038C91.3288 33.6662 91.5584 33.7293 91.7117 33.7932L91.7523 37.9125L90.3459 37.9264C89.67 37.933 89.0714 38.037 88.55 38.2383C88.0503 38.4176 87.6279 38.7052 87.2829 39.1009C86.9379 39.4967 86.681 39.9787 86.5122 40.5471C86.3651 41.1153 86.2954 41.7808 86.3029 42.5437L86.3877 51.142L81.8416 51.1868Z" fill="#EBFF00"/>
<path d="M244.438 86.1972L242.76 58.2201L300.433 51.3405L304.858 71.062L270.071 89.2548L244.438 86.1972Z" fill="#EBFF00"/>
<path d="M260.727 82.4092L260.592 68.7108L258.139 68.7349L258.104 65.2368L260.557 65.2126L260.539 63.3164C260.529 62.3792 260.674 61.5495 260.972 60.8272C261.292 60.0829 261.799 59.5003 262.492 59.0793C263.186 58.6583 264.11 58.4422 265.266 58.4308C265.593 58.4276 265.931 58.446 266.28 58.4862C266.652 58.5261 267.001 58.5881 267.329 58.672C267.678 58.734 267.974 58.8074 268.214 58.8922L268.244 61.9L266.609 61.9161C266.085 61.9212 265.694 62.0559 265.435 62.32C265.198 62.5839 265.082 62.9665 265.087 63.4678L265.103 65.1678L268.276 65.1366L268.31 68.6347L265.138 68.666L265.273 82.3644L260.727 82.4092ZM270.377 62.5983L270.338 58.6751L274.852 58.6306L274.89 62.5538L270.377 62.5983ZM270.571 82.3122L270.402 65.1156L274.915 65.0712L275.085 82.2678L270.571 82.3122Z" fill="#EBFF00"/>
<path d="M202.699 42.9999L191.592 40.7301L190.715 55.1054L202.699 47.6908V42.9999Z" fill="#EBFF00"/>
<path d="M231.46 46.5487H209.465L208.862 45.6485L209.465 35.5961H230.255L231.46 46.5487Z" fill="#EBFF00"/>
<path d="M217.08 30.8043H208.862L207.835 6.16089L217.08 6.76937V30.8043Z" fill="#EBFF00"/>
<path d="M230.433 8.68002L223.242 6.84546V29.7775H230.433V8.68002Z" fill="#EBFF00"/>
<path d="M258.25 6.84546L235.227 8.6709L237.222 46.5487L261.934 44.2669L258.25 6.84546Z" fill="#EBFF00"/>
<path d="M246.116 119.066L244.438 92.9239L270.07 94.9113L306.688 75.8013L315.69 87.2673L278.767 120.137L246.116 119.066Z" fill="#EBFF00"/>
<path d="M111.595 169.105L103.404 152.446L128.129 123.559L161.954 134.258L149.971 172.162L111.595 169.105Z" fill="#EBFF00"/>
<path d="M118.325 164.167C116.581 164.184 115.192 163.718 114.157 162.769C113.123 161.82 112.595 160.278 112.574 158.142L112.461 146.634L117.007 146.589L117.113 157.345C117.119 157.912 117.189 158.391 117.323 158.782C117.458 159.151 117.646 159.454 117.888 159.692C118.152 159.929 118.47 160.1 118.842 160.205C119.214 160.311 119.629 160.361 120.086 160.357C120.762 160.35 121.371 160.18 121.913 159.848C122.455 159.516 122.876 159.065 123.175 158.495C123.475 157.904 123.621 157.248 123.614 156.529L123.515 146.525L128.061 146.48L128.231 163.677L124.502 163.713L124.152 161.363L123.923 161.365C123.514 161.914 123.029 162.398 122.466 162.818C121.925 163.238 121.306 163.56 120.611 163.784C119.916 164.031 119.154 164.159 118.325 164.167Z" fill="#EBFF00"/>
<path d="M132.404 163.636L132.17 139.966L136.716 139.921L136.851 153.554L142.798 146.335L148.129 146.282L142.308 153.075L148.593 163.476L143.393 163.527L139.364 156.308L136.902 158.752L136.95 163.591L132.404 163.636Z" fill="#EBFF00"/>
<path d="M167.843 136.223L156.133 172.229L184.483 178.665L196.193 142.352L186.332 138.675L167.843 136.223Z" fill="#EBFF00"/>
<path d="M201.942 143.753L190.372 180.685L272.581 202.966L282.477 170.765L237.262 149.705L201.942 143.753Z" fill="#EBFF00"/>
<path d="M182.497 74.6146L138.328 114.371L178.096 126.297L182.497 74.6146Z" fill="#EBFF00"/>
<path d="M184.209 127.408L188.568 71.2481L202.698 62.293L199.391 130.747L184.209 127.408Z" fill="#EBFF00"/>
<path d="M231.434 58.1858H213.231L211.259 109.868H235.227L231.434 58.1858Z" fill="#EBFF00"/>
<path d="M211.259 113.633V132.766L237.281 138.277L235.444 115.164L211.259 113.633Z" fill="#EBFF00"/>
<path d="M247.25 141.291L246.184 125.271H273.918L262.641 148.545L247.25 141.291Z" fill="#EBFF00"/>
<path d="M220.603 179.43C220.051 179.301 219.471 179.098 218.864 178.821C218.279 178.549 217.747 178.189 217.27 177.742C216.798 177.273 216.453 176.688 216.237 175.988C216.047 175.272 216.066 174.426 216.295 173.45C216.569 172.283 217.05 171.377 217.739 170.732C218.428 170.088 219.289 169.663 220.323 169.458C221.383 169.236 222.59 169.195 223.946 169.333C225.302 169.472 226.776 169.728 228.369 170.102L228.66 168.86C228.774 168.372 228.789 167.928 228.704 167.527C228.64 167.132 228.431 166.781 228.078 166.474C227.745 166.172 227.229 165.939 226.528 165.775C225.828 165.61 225.235 165.561 224.749 165.626C224.285 165.696 223.925 165.847 223.669 166.078C223.439 166.293 223.287 166.559 223.213 166.878L223.123 167.26L218.824 166.252C218.828 166.141 218.84 166.043 218.86 165.958C218.884 165.852 218.914 165.724 218.949 165.576C219.178 164.6 219.672 163.831 220.431 163.27C221.195 162.688 222.163 162.333 223.335 162.205C224.507 162.077 225.815 162.182 227.259 162.52C228.808 162.884 230.056 163.389 231.001 164.036C231.968 164.688 232.635 165.472 233.003 166.386C233.392 167.306 233.447 168.36 233.168 169.548L231.383 177.156C231.293 177.538 231.332 177.849 231.5 178.09C231.693 178.314 231.928 178.459 232.204 178.524L233.255 178.77L232.575 181.667C232.338 181.723 231.984 181.752 231.513 181.753C231.038 181.776 230.481 181.713 229.845 181.564C229.229 181.419 228.699 181.194 228.256 180.889C227.829 180.609 227.493 180.273 227.25 179.88C227.011 179.466 226.883 179.011 226.865 178.514L226.642 178.462C226.176 178.823 225.639 179.111 225.028 179.326C224.439 179.546 223.772 179.669 223.026 179.696C222.302 179.728 221.494 179.639 220.603 179.43ZM222.884 176.439C223.478 176.578 224.029 176.618 224.536 176.557C225.047 176.476 225.497 176.324 225.886 176.102C226.279 175.858 226.612 175.533 226.887 175.127C227.183 174.727 227.39 174.271 227.51 173.762L227.726 172.839C226.537 172.56 225.456 172.396 224.482 172.347C223.513 172.277 222.708 172.368 222.067 172.62C221.446 172.878 221.056 173.346 220.897 174.025C220.807 174.407 220.826 174.758 220.952 175.079C221.078 175.4 221.304 175.677 221.63 175.91C221.957 176.143 222.374 176.319 222.884 176.439Z" fill="#EBFF00"/>
<path d="M234.738 182.341L238.667 165.599L242.328 166.457L242.066 169.149L242.289 169.202C242.631 168.7 243.024 168.266 243.468 167.9C243.917 167.513 244.429 167.241 245.003 167.084C245.577 166.928 246.204 166.929 246.883 167.089C247.244 167.173 247.563 167.293 247.841 167.448C248.123 167.581 248.331 167.697 248.465 167.795L247.523 171.806L246.154 171.485C245.496 171.331 244.89 171.289 244.336 171.361C243.808 171.416 243.329 171.595 242.9 171.897C242.47 172.199 242.106 172.607 241.807 173.118C241.529 173.635 241.302 174.265 241.128 175.008L239.164 183.379L234.738 182.341Z" fill="#EBFF00"/>
<path d="M248.168 191.804C247.425 191.63 246.762 191.307 246.179 190.834C245.59 190.383 245.164 189.813 244.9 189.124C244.636 188.435 244.601 187.677 244.796 186.849C245.015 185.916 245.454 185.235 246.115 184.808C246.801 184.364 247.516 184.084 248.26 183.968C247.837 183.577 247.518 183.122 247.304 182.602C247.112 182.086 247.085 181.532 247.224 180.937C247.419 180.11 247.873 179.511 248.587 179.141C249.327 178.755 250.107 178.58 250.927 178.615C250.256 177.943 249.785 177.183 249.514 176.336C249.268 175.473 249.255 174.574 249.474 173.64C249.758 172.431 250.294 171.482 251.083 170.794C251.893 170.11 252.91 169.689 254.135 169.528C255.386 169.351 256.786 169.444 258.336 169.808C258.951 169.952 259.517 170.118 260.033 170.306C260.57 170.5 261.044 170.723 261.455 170.976C262.35 170.693 263 170.308 263.405 169.821C263.837 169.318 264.103 168.899 264.204 168.564L268.312 169.528C268.127 170.313 267.82 170.957 267.388 171.46C266.977 171.969 266.462 172.351 265.842 172.609C265.226 172.845 264.527 172.961 263.744 172.957C264.187 173.553 264.479 174.215 264.622 174.942C264.765 175.67 264.747 176.416 264.568 177.18C264.289 178.368 263.763 179.319 262.991 180.034C262.223 180.727 261.257 181.172 260.091 181.369C258.946 181.57 257.641 181.499 256.176 181.156L253.629 180.559C253.12 180.439 252.715 180.445 252.415 180.576C252.121 180.686 251.934 180.911 251.854 181.251C251.789 181.527 251.838 181.795 252.001 182.057C252.189 182.303 252.539 182.486 253.048 182.605L260.021 184.24C261.423 184.569 262.435 185.265 263.059 186.33C263.709 187.377 263.877 188.57 263.563 189.907C263.324 190.925 262.847 191.765 262.132 192.426C261.417 193.086 260.54 193.53 259.502 193.757C258.463 193.983 257.339 193.955 256.129 193.671L248.168 191.804ZM250.71 189.277L256.601 190.658C256.983 190.748 257.34 190.753 257.672 190.675C257.999 190.617 258.277 190.481 258.507 190.266C258.731 190.072 258.881 189.816 258.956 189.498C259.085 188.946 259.012 188.493 258.738 188.137C258.463 187.782 258.07 187.544 257.561 187.425L251.479 185.999C250.97 185.879 250.51 185.928 250.101 186.145C249.713 186.368 249.461 186.723 249.347 187.211C249.232 187.699 249.299 188.129 249.548 188.501C249.813 188.899 250.2 189.158 250.71 189.277ZM256.371 178.179C257.411 178.423 258.251 178.374 258.892 178.032C259.558 177.673 259.996 177.048 260.205 176.157C260.414 175.265 260.298 174.522 259.855 173.925C259.439 173.313 258.711 172.885 257.671 172.641C256.652 172.402 255.809 172.462 255.143 172.82C254.502 173.163 254.078 173.779 253.869 174.671C253.734 175.244 253.734 175.77 253.868 176.249C254.002 176.728 254.277 177.129 254.694 177.45C255.112 177.772 255.671 178.015 256.371 178.179Z" fill="#EBFF00"/>
</svg>
