<svg width="63" height="39" viewBox="0 0 63 39" fill="none" xmlns="http://www.w3.org/2000/svg">
<g id="Finland">
<path id="Vector 29" d="M2.43764 35.1971L0.759323 7.22001L58.4324 0.340393L62.8571 20.062L28.0701 38.2547L2.43764 35.1971Z" fill="#71A8E9"/>
<path id="fi" d="M18.7267 31.4092L18.5917 17.7108L16.1388 17.7349L16.1043 14.2368L18.5572 14.2126L18.5385 12.3164C18.5293 11.3792 18.6738 10.5495 18.9719 9.82721C19.2917 9.08295 19.7983 8.50032 20.492 8.07933C21.1856 7.65835 22.1102 7.44216 23.2658 7.43078C23.5929 7.42756 23.931 7.44602 24.2803 7.48618C24.6514 7.52612 25.0009 7.58807 25.3288 7.67203C25.6783 7.73398 25.9734 7.80736 26.2141 7.89218L26.2438 10.9L24.6085 10.9161C24.0852 10.9212 23.694 11.0559 23.435 11.32C23.1977 11.5839 23.0816 11.9665 23.0865 12.4678L23.1033 14.1678L26.2757 14.1366L26.3102 17.6347L23.1377 17.666L23.2728 31.3644L18.7267 31.4092ZM28.3767 11.5983L28.338 7.67508L32.8514 7.63062L32.89 11.5538L28.3767 11.5983ZM28.571 31.3122L28.4015 14.1156L32.9148 14.0712L33.0844 31.2678L28.571 31.3122Z" fill="white"/>
</g>
</svg>
