<svg width="58" height="48" viewBox="0 0 58 48" fill="none" xmlns="http://www.w3.org/2000/svg">
<g id="japan">
<path id="Vector 15" d="M2.39677 47.3922V32.8826L57.5227 31.6478V47.3922H2.39677Z" fill="#F1511E"/>
<path id="Vector 16" d="M0 1.54428L2.1418 26.1715H57.5227L55.0749 0.158997L0 1.54428Z" fill="#F1511E"/>
<g id="jpn">
<path d="M10.3234 5.18361L10.2944 2.24123L13.7039 2.20764L13.7329 5.15002L10.3234 5.18361ZM10.441 24.5795C10.212 24.5818 9.95023 24.568 9.65556 24.5382C9.37725 24.5083 9.09877 24.462 8.82013 24.3993C8.54165 24.353 8.31207 24.2899 8.13138 24.2099L8.10939 21.9786L9.33583 21.9665C9.71195 21.9628 9.99707 21.8538 10.1912 21.6393C10.3855 21.4412 10.4807 21.146 10.4769 20.7537L10.342 7.07164L13.7515 7.03805L13.889 20.9898C13.8955 21.6437 13.7869 22.2415 13.5633 22.7832C13.356 23.3247 13.0004 23.7533 12.4966 24.0688C12.0092 24.4006 11.324 24.5708 10.441 24.5795Z" fill="white"/>
<path d="M16.9797 24.2699L16.8096 7.00793L19.6059 6.98038L19.9174 8.71839L20.0891 8.7167C20.5073 8.00961 21.0582 7.48922 21.7418 7.15552C22.4254 6.82182 23.1842 6.65087 24.0182 6.64265C25.0975 6.63202 26.0237 6.85995 26.797 7.32643C27.5866 7.79274 28.1907 8.52246 28.6093 9.51557C29.0443 10.5085 29.2696 11.7896 29.285 13.3589C29.3 14.8791 29.0999 16.1399 28.6845 17.1412C28.2692 18.1426 27.6796 18.8922 26.9159 19.3902C26.1683 19.8717 25.2876 20.1174 24.2738 20.1274C23.7178 20.1328 23.202 20.0725 22.7265 19.9464C22.2512 19.8367 21.8241 19.6529 21.4455 19.395C21.0668 19.1372 20.7447 18.8216 20.4794 18.4482L20.3322 18.4496L20.3893 24.2363L16.9797 24.2699ZM23.0688 17.3437C23.7556 17.3369 24.294 17.2008 24.6839 16.9354C25.09 16.6535 25.3803 16.242 25.5548 15.7007C25.7292 15.1432 25.8125 14.4639 25.8046 13.6629L25.799 13.099C25.791 12.2817 25.6943 11.6042 25.5092 11.0665C25.3238 10.5125 25.0254 10.1067 24.614 9.8492C24.2188 9.57517 23.6778 9.44154 22.991 9.44831C22.3532 9.45459 21.8314 9.60686 21.4255 9.90513C21.0196 10.2034 20.7212 10.6314 20.5305 11.1891C20.3397 11.7468 20.2482 12.418 20.256 13.2026L20.2601 13.6195C20.2657 14.1916 20.3281 14.7141 20.4472 15.187C20.5662 15.6436 20.7336 16.0343 20.9494 16.3592C21.1816 16.6838 21.4703 16.9344 21.8154 17.1108C22.1605 17.2709 22.5783 17.3485 23.0688 17.3437Z" fill="white"/>
<path d="M31.8601 19.7584L31.733 6.86093L34.5538 6.83314L34.841 8.59591L35.0127 8.59422C35.3029 8.16631 35.6508 7.79505 36.0566 7.48044C36.4787 7.16566 36.9506 6.92397 37.4723 6.75535C37.9939 6.58673 38.5655 6.49935 39.1869 6.49323C40.0372 6.48486 40.7828 6.63282 41.4236 6.93712C42.0644 7.24143 42.5598 7.72699 42.9098 8.39382C43.2762 9.06048 43.4647 9.93325 43.4753 11.0121L43.5604 19.6431L40.1509 19.6767L40.0711 11.5851C40.0671 11.1765 40.0147 10.8337 39.9138 10.5568C39.8128 10.2635 39.6633 10.0279 39.4653 9.85004C39.2835 9.65565 39.0532 9.51896 38.7744 9.43996C38.4956 9.36097 38.1844 9.32316 37.841 9.32655C37.3341 9.33154 36.8774 9.45865 36.471 9.70788C36.0646 9.9571 35.7491 10.2953 35.5243 10.7226C35.2996 11.1499 35.1899 11.6414 35.1954 12.1972L35.2696 19.7248L31.8601 19.7584Z" fill="white"/>
</g>
</g>
</svg>
