<svg width="113" height="97" viewBox="0 0 113 97" fill="none" xmlns="http://www.w3.org/2000/svg">
<path d="M4.68994 96.5726V68.1702L112.559 65.7529V96.5726H4.68994Z" fill="#F1511E"/>
<path d="M0 6.82497L4.19102 55.0328H112.559L107.769 4.11328L0 6.82497Z" fill="#F1511E"/>
<path d="M20.2005 13.9489L20.1437 8.1892L26.8154 8.12346L26.8722 13.8832L20.2005 13.9489ZM20.4306 51.9165C19.9827 51.9209 19.4704 51.894 18.8938 51.8356C18.3492 51.777 17.8042 51.6864 17.259 51.5637C16.7141 51.4731 16.2648 51.3495 15.9113 51.193L15.8682 46.8252L18.2681 46.8016C19.0041 46.7943 19.562 46.5808 19.9419 46.161C20.3221 45.7733 20.5084 45.1954 20.5008 44.4274L20.2369 17.6447L26.9086 17.579L27.1777 44.8897C27.1903 46.1696 26.9779 47.3398 26.5403 48.4001C26.1347 49.4602 25.4389 50.2991 24.453 50.9168C23.4993 51.5662 22.1586 51.8995 20.4306 51.9165ZM33.2255 51.3104L32.8926 17.52L38.3643 17.4661L38.9738 20.8683L39.3098 20.865C40.1282 19.4808 41.2062 18.4622 42.5439 17.8089C43.8815 17.1557 45.3663 16.8211 46.9982 16.805C49.1101 16.7842 50.9226 17.2304 52.4357 18.1435C53.9807 19.0563 55.1629 20.4847 55.982 22.4288C56.8332 24.3725 57.274 26.8802 57.3042 29.9521C57.3336 32.9279 56.9419 35.3959 56.1291 37.356C55.3164 39.3161 54.1628 40.7836 52.6684 41.7583C51.2056 42.7008 49.4822 43.1818 47.4983 43.2014C46.4104 43.2121 45.4012 43.094 44.4707 42.8472C43.5405 42.6323 42.7049 42.2725 41.9639 41.7678C41.2229 41.2631 40.5928 40.6453 40.0736 39.9144L39.7856 39.9172L39.8972 51.2446L33.2255 51.3104ZM45.1405 37.7523C46.4845 37.7391 47.5379 37.4727 48.3008 36.9531C49.0954 36.4013 49.6635 35.5957 50.0051 34.5362C50.3463 33.4448 50.5092 32.1152 50.4938 30.5472L50.4829 29.4433C50.4671 27.8434 50.2781 26.5172 49.9157 25.4647C49.553 24.3802 48.9691 23.5859 48.1641 23.0818C47.3908 22.5454 46.3322 22.2838 44.9882 22.2971C43.7403 22.3094 42.7192 22.6075 41.9249 23.1913C41.1306 23.7752 40.5468 24.613 40.1736 25.7047C39.8003 26.7964 39.6212 28.1102 39.6364 29.6462L39.6444 30.4621C39.6554 31.5821 39.7775 32.6049 40.0107 33.5307C40.2435 34.4244 40.571 35.1892 40.9933 35.8251C41.4476 36.4607 42.0125 36.9511 42.6879 37.2965C43.363 37.6098 44.1806 37.7618 45.1405 37.7523ZM62.3431 42.479L62.0943 17.2323L67.614 17.1779L68.176 20.6285L68.512 20.6252C69.0798 19.7876 69.7607 19.0608 70.5546 18.445C71.3806 17.8288 72.304 17.3557 73.3248 17.0256C74.3456 16.6955 75.4639 16.5245 76.6799 16.5125C78.3438 16.4961 79.8027 16.7858 81.0567 17.3814C82.3106 17.9771 83.28 18.9276 83.9649 20.2329C84.6818 21.5379 85.0506 23.2464 85.0715 25.3583L85.2379 42.2534L78.5663 42.3192L78.4102 26.4799C78.4023 25.68 78.2997 25.009 78.1023 24.4669C77.9047 23.8928 77.6121 23.4317 77.2247 23.0835C76.8689 22.703 76.4182 22.4354 75.8727 22.2807C75.3271 22.1261 74.7184 22.0521 74.0464 22.0587C73.0545 22.0685 72.1609 22.3173 71.3656 22.8052C70.5704 23.293 69.9529 23.9552 69.5131 24.7915C69.0733 25.6279 68.8588 26.5901 68.8695 27.678L69.0147 42.4133L62.3431 42.479Z" fill="white"/>
</svg>
