<svg width="36" height="81" viewBox="0 0 36 81" fill="none" xmlns="http://www.w3.org/2000/svg">
<g id="Kr">
<path id="Vector 17" d="M0.577034 2.33057L5.88569 80.3654H33.4907L35.1591 0.958862L0.577034 2.33057Z" fill="#5A319D"/>
<g id="kr">
<path d="M4.18948 28.3706L3.95615 4.70073L8.50219 4.65594L8.63658 18.289L14.5838 11.0699L19.9147 11.0174L14.0942 17.8102L20.3786 28.2111L15.1785 28.2623L11.1496 21.0434L8.68782 23.4872L8.73552 28.3258L4.18948 28.3706Z" fill="white"/>
<path d="M22.8417 28.1868L22.6722 10.9902L26.4333 10.9532L26.8195 13.6305L27.0484 13.6282C27.2609 13.0594 27.5393 12.5444 27.8836 12.0833C28.2277 11.6003 28.6601 11.2146 29.1805 10.9261C29.701 10.6376 30.3101 10.4899 31.0079 10.4831C31.3785 10.4794 31.7169 10.5197 32.023 10.6039C32.3289 10.6662 32.5585 10.7294 32.7118 10.7932L32.7524 14.9126L31.346 14.9264C30.6701 14.9331 30.0715 15.0371 29.5501 15.2384C29.0504 15.4177 28.628 15.7052 28.283 16.101C27.938 16.4967 27.6811 16.9788 27.5123 17.5472C27.3652 18.1154 27.2955 18.7809 27.303 19.5437L27.3878 28.142L22.8417 28.1868Z" fill="white"/>
</g>
</g>
</svg>
