<svg width="124" height="134" viewBox="0 0 124 134" fill="none" xmlns="http://www.w3.org/2000/svg">
<path d="M24.5014 52.4798L0.0247192 98.48L77.6337 133.5L123.304 72.3638L102.409 49.8088L113.752 30.5184L83.6036 0.84082L24.5014 52.4798Z" fill="#5E5BF8"/>
<path d="M21.0435 90.7965C19.4511 90.0469 18.0997 89.1986 16.9894 88.2515C15.879 87.3043 15.0182 86.3155 14.4069 85.285C13.8092 84.2256 13.4687 83.1457 13.3853 82.0454C13.331 80.9588 13.5627 79.8654 14.0807 78.7652C14.1352 78.6494 14.1897 78.5336 14.2442 78.4178C14.2987 78.3019 14.3541 78.2219 14.4103 78.1776L20.2297 80.9171C20.2025 80.975 20.1752 81.0329 20.148 81.0908C20.1207 81.1487 20.0935 81.2066 20.0662 81.2645C19.7544 82.0019 19.7067 82.7045 19.9229 83.3722C20.1527 84.0109 20.5674 84.5951 21.1668 85.1249C21.7952 85.6683 22.5003 86.124 23.282 86.492C23.9769 86.8191 24.6701 87.0746 25.3615 87.2587C26.0956 87.4274 26.7615 87.4402 27.3594 87.2972C27.9862 87.1679 28.429 86.8281 28.688 86.278C29.0151 85.5832 28.9777 84.9113 28.5758 84.2623C28.2029 83.627 27.6077 82.9754 26.7903 82.3077C26.0018 81.6536 25.14 80.9296 24.2051 80.1358C23.3297 79.4408 22.468 78.7168 21.6199 77.9639C20.7854 77.182 20.0787 76.3542 19.4998 75.4804C18.9497 74.6202 18.6126 73.6834 18.4884 72.67C18.3778 71.6277 18.6087 70.4985 19.1812 69.2825C19.74 68.0954 20.4844 67.1903 21.4144 66.567C22.358 65.9148 23.4149 65.5104 24.585 65.3539C25.7841 65.211 27.0529 65.2954 28.3916 65.6073C29.7729 65.9038 31.1728 66.386 32.5915 67.0538C33.9233 67.6807 35.1001 68.4115 36.1219 69.2462C37.1574 70.052 37.9799 70.9343 38.5895 71.8933C39.2128 72.8233 39.5797 73.8095 39.6903 74.8519C39.8145 75.8653 39.6449 76.8642 39.1815 77.8486C39.0861 78.0512 38.9975 78.2394 38.9157 78.4131C38.834 78.5868 38.765 78.6958 38.7088 78.7401L32.9327 76.0211L33.0963 75.6737C33.3416 75.1525 33.3868 74.6433 33.2319 74.1459C33.0906 73.6196 32.7636 73.1121 32.251 72.6232C31.7674 72.1479 31.1057 71.7127 30.2661 71.3174C29.6871 71.0449 29.131 70.8361 28.5979 70.6913C28.0938 70.5601 27.6271 70.4996 27.1979 70.5097C26.7687 70.5199 26.3915 70.6076 26.0661 70.7727C25.7834 70.9226 25.5602 71.1712 25.3967 71.5187C25.165 72.0109 25.1768 72.5116 25.4323 73.0209C25.7303 73.5148 26.179 74.0267 26.7784 74.5565C27.3779 75.0862 28.0429 75.6645 28.7735 76.2914C29.6795 77.0716 30.6289 77.8722 31.6218 78.6933C32.6572 79.499 33.5581 80.3652 34.3244 81.2918C35.0908 82.2184 35.5735 83.2591 35.7726 84.4139C35.9854 85.5398 35.751 86.8265 35.0696 88.2741C34.4154 89.6638 33.5884 90.7069 32.5885 91.4034C31.6176 92.1135 30.5181 92.5332 29.2901 92.6625C28.0621 92.7918 26.7498 92.6869 25.3532 92.3478C23.9567 92.0087 22.5201 91.4916 21.0435 90.7965ZM32.5314 105.011L46.9237 74.4371L51.8745 76.7677L50.9442 80.0965L51.2482 80.2396C52.587 79.349 54.0007 78.9003 55.4893 78.8937C56.9779 78.8871 58.4605 79.2313 59.937 79.9264C61.8479 80.8259 63.2861 82.0158 64.2516 83.496C65.2461 84.9898 65.6896 86.7901 65.582 88.8969C65.5034 91.0174 64.8099 93.4673 63.5015 96.2468C62.234 98.9394 60.8082 100.992 59.224 102.403C57.6399 103.815 55.963 104.635 54.1934 104.863C52.4663 105.076 50.7053 104.759 48.9102 103.914C47.9258 103.451 47.0683 102.906 46.3377 102.279C45.5935 101.681 44.9975 100.994 44.5496 100.217C44.1018 99.4404 43.803 98.6101 43.6532 97.7261L43.3926 97.6035L38.568 107.853L32.5314 105.011ZM49.1562 97.9823C50.3722 98.5547 51.4367 98.7728 52.3496 98.6367C53.3051 98.4852 54.167 98.0067 54.9352 97.2012C55.7171 96.3668 56.4419 95.2402 57.1097 93.8215L57.5799 92.8226C58.2614 91.375 58.6678 90.0985 58.799 88.9932C58.944 87.8589 58.7635 86.8897 58.2578 86.0858C57.7946 85.2665 56.955 84.5706 55.739 83.9982C54.6099 83.4667 53.5607 83.2911 52.5916 83.4715C51.6225 83.6519 50.7325 84.1526 49.9217 84.9734C49.1108 85.7942 48.3783 86.8995 47.7241 88.2892L47.3766 89.0275C46.8996 90.0409 46.5648 91.0151 46.3722 91.9501C46.1933 92.8562 46.1557 93.6873 46.2595 94.4435C46.3923 95.2134 46.6877 95.9007 47.1458 96.5054C47.6175 97.0811 48.2876 97.5734 49.1562 97.9823ZM62.5923 109.719L73.3457 86.875L78.34 89.226L77.3457 92.5777L77.6497 92.7209C78.5252 92.2134 79.4544 91.855 80.4371 91.6456C81.4489 91.4499 82.4861 91.4253 83.5489 91.5719C84.6116 91.7185 85.6931 92.0508 86.7933 92.5687C88.2989 93.2774 89.4867 94.1726 90.3569 95.2542C91.2271 96.3358 91.6868 97.6133 91.736 99.0866C91.8142 100.573 91.4035 102.272 90.504 104.183L83.3078 119.47L77.2712 116.628L84.0176 102.297C84.3584 101.573 84.5577 100.924 84.6157 100.35C84.6873 99.7474 84.6244 99.2049 84.4268 98.7229C84.2719 98.2255 83.9824 97.7886 83.5584 97.4122C83.1343 97.0357 82.6183 96.7044 82.0103 96.4182C81.1128 95.9957 80.1999 95.8312 79.2716 95.9247C78.3434 96.0183 77.4994 96.3461 76.7397 96.908C75.98 97.47 75.3685 98.2432 74.9051 99.2275L68.6289 112.56L62.5923 109.719Z" fill="white"/>
</svg>
