<svg width="63" height="68" viewBox="0 0 63 68" fill="none" xmlns="http://www.w3.org/2000/svg">
<g id="Spain">
<path id="Vector 24" d="M12.5077 26.4505L-0.00100708 49.95L39.6606 67.8398L63 36.6083L52.3219 25.086L58.1186 15.2314L42.7115 0.0704956L12.5077 26.4505Z" fill="#5E5BF8"/>
<g id="spn">
<path d="M10.7405 46.025C9.92675 45.642 9.23613 45.2086 8.66869 44.7248C8.10124 44.241 7.66132 43.7358 7.34891 43.2094C7.04346 42.6682 6.86945 42.1165 6.82687 41.5544C6.79908 40.9993 6.91753 40.4407 7.1822 39.8787C7.21006 39.8195 7.23792 39.7604 7.26578 39.7012C7.29364 39.642 7.32193 39.6012 7.35066 39.5785L10.3247 40.978C10.3107 41.0076 10.2968 41.0372 10.2829 41.0667C10.2689 41.0963 10.255 41.1259 10.2411 41.1555C10.0818 41.5322 10.0573 41.8911 10.1678 42.2322C10.2853 42.5585 10.4972 42.857 10.8036 43.1276C11.1247 43.4052 11.485 43.638 11.8845 43.826C12.2396 43.9931 12.5939 44.1236 12.9472 44.2176C13.3224 44.3038 13.6627 44.3104 13.9682 44.2373C14.2885 44.1713 14.5149 43.9977 14.6472 43.7167C14.8144 43.3617 14.7952 43.0185 14.5899 42.6869C14.3993 42.3624 14.0951 42.0295 13.6774 41.6884C13.2744 41.3542 12.834 40.9844 12.3562 40.5789C11.9089 40.2238 11.4685 39.854 11.0351 39.4694C10.6086 39.0699 10.2475 38.647 9.9516 38.2006C9.67051 37.7612 9.49823 37.2827 9.43476 36.7649C9.37825 36.2325 9.49626 35.6556 9.78879 35.0344C10.0744 34.428 10.4548 33.9656 10.9301 33.6472C11.4123 33.314 11.9524 33.1074 12.5504 33.0275C13.1632 32.9544 13.8116 32.9976 14.4957 33.1569C15.2016 33.3084 15.9171 33.5547 16.6421 33.8959C17.3227 34.2161 17.9241 34.5895 18.4463 35.0159C18.9754 35.4275 19.3958 35.8783 19.7073 36.3682C20.0258 36.8433 20.2134 37.3471 20.2699 37.8796C20.3333 38.3973 20.2467 38.9076 20.0099 39.4104C19.9611 39.514 19.9158 39.6101 19.874 39.6988C19.8323 39.7876 19.797 39.8433 19.7683 39.8659L16.8165 38.4769L16.9 38.2994C17.0254 38.0332 17.0485 37.773 16.9693 37.5189C16.8971 37.2501 16.73 36.9908 16.4681 36.741C16.2209 36.4982 15.8828 36.2759 15.4537 36.074C15.1578 35.9347 14.8736 35.8281 14.6012 35.7541C14.3435 35.6871 14.1051 35.6562 13.8857 35.6614C13.6664 35.6666 13.4736 35.7113 13.3073 35.7957C13.1628 35.8723 13.0488 35.9993 12.9652 36.1768C12.8468 36.4282 12.8528 36.684 12.9834 36.9442C13.1357 37.1965 13.365 37.458 13.6713 37.7287C13.9777 37.9993 14.3175 38.2947 14.6909 38.615C15.1539 39.0135 15.6391 39.4225 16.1465 39.842C16.6757 40.2536 17.1361 40.6961 17.5277 41.1694C17.9193 41.6428 18.166 42.1745 18.2678 42.7644C18.3765 43.3395 18.2567 43.9969 17.9085 44.7364C17.5742 45.4463 17.1515 45.9792 16.6405 46.335C16.1444 46.6978 15.5825 46.9122 14.9549 46.9782C14.3273 47.0443 13.6567 46.9907 12.943 46.8174C12.2293 46.6442 11.4951 46.38 10.7405 46.025Z" fill="white"/>
<path d="M16.6113 53.2865L23.9664 37.6677L26.4966 38.8583L26.0211 40.5588L26.1765 40.6319C26.8607 40.1769 27.5831 39.9477 28.3439 39.9444C29.1046 39.941 29.8623 40.1168 30.6169 40.4719C31.5934 40.9314 32.3284 41.5393 32.8218 42.2954C33.33 43.0586 33.5567 43.9783 33.5017 45.0545C33.4615 46.1378 33.1071 47.3894 32.4385 48.8093C31.7907 50.1848 31.0621 51.2331 30.2525 51.9543C29.4429 52.6755 28.586 53.0944 27.6816 53.2108C26.799 53.3195 25.899 53.158 24.9817 52.7263C24.4786 52.4896 24.0404 52.2111 23.667 51.8909C23.2867 51.5854 22.9821 51.2343 22.7532 50.8375C22.5244 50.4407 22.3716 50.0166 22.2951 49.565L22.1619 49.5023L19.6963 54.7382L16.6113 53.2865ZM25.1074 49.6958C25.7288 49.9883 26.2728 50.0997 26.7393 50.0301C27.2276 49.9528 27.6681 49.7083 28.0607 49.2968C28.4603 48.8705 28.8307 48.295 29.172 47.5703L29.4123 47.06C29.7605 46.3205 29.9682 45.6684 30.0353 45.1037C30.1094 44.5242 30.0172 44.0292 29.7587 43.6185C29.522 43.1999 29.0929 42.8444 28.4715 42.552C27.8945 42.2805 27.3583 42.1908 26.863 42.283C26.3678 42.3751 25.9129 42.6309 25.4986 43.0502C25.0842 43.4695 24.7099 44.0342 24.3755 44.7441L24.1979 45.1213C23.9541 45.6389 23.7831 46.1366 23.6846 46.6143C23.5932 47.0771 23.574 47.5017 23.627 47.8881C23.6949 48.2813 23.8458 48.6324 24.08 48.9413C24.321 49.2355 24.6635 49.487 25.1074 49.6958Z" fill="white"/>
<path d="M31.9738 55.6914L37.4693 44.0216L40.0216 45.2227L39.5135 46.9349L39.6689 47.008C40.1163 46.7488 40.5911 46.5657 41.0933 46.4587C41.6104 46.3587 42.1405 46.3462 42.6836 46.4211C43.2267 46.496 43.7794 46.6657 44.3416 46.9303C45.111 47.2923 45.7181 47.7496 46.1628 48.3022C46.6075 48.8547 46.8424 49.5073 46.8676 50.26C46.9075 51.0196 46.6977 51.8874 46.238 52.8636L42.5604 60.673L39.4754 59.2213L42.9231 51.9C43.0973 51.5303 43.1991 51.1988 43.2288 50.9056C43.2654 50.5975 43.2332 50.3204 43.1323 50.0742C43.0531 49.8201 42.9051 49.5969 42.6884 49.4046C42.4717 49.2123 42.208 49.043 41.8973 48.8968C41.4386 48.681 40.9721 48.5969 40.4977 48.6447C40.0233 48.6925 39.592 48.86 39.2038 49.1471C38.8156 49.4341 38.503 49.8291 38.2662 50.332L35.0588 57.143L31.9738 55.6914Z" fill="white"/>
</g>
</g>
</svg>
