<svg width="59" height="50" viewBox="0 0 59 50" fill="none" xmlns="http://www.w3.org/2000/svg">
<g id="Uk">
<path id="Vector 12" d="M8.59476 46.1048L0.403847 29.4455L25.1283 0.559265L58.9537 11.2579L46.9707 49.1615L8.59476 46.1048Z" fill="#C8297F"/>
<g id="uk">
<path d="M15.3246 41.1666C13.5803 41.1838 12.1911 40.7179 11.1569 39.769C10.1226 38.8201 9.595 37.2777 9.57395 35.1417L9.4605 23.6338L14.0065 23.589L14.1126 34.345C14.1182 34.9117 14.1883 35.3906 14.323 35.7816C14.4575 36.1508 14.6458 36.4541 14.888 36.6915C15.152 36.9287 15.4699 37.0999 15.8416 37.2053C16.2133 37.3106 16.6281 37.361 17.086 37.3565C17.7619 37.3498 18.3708 37.1803 18.9127 36.848C19.4545 36.5157 19.8753 36.0647 20.175 35.4951C20.4744 34.9036 20.6206 34.2482 20.6135 33.529L20.5149 23.5249L25.0609 23.4801L25.2304 40.6767L21.502 40.7134L21.1518 38.3627L20.9229 38.365C20.514 38.9139 20.0281 39.3983 19.4653 39.818C18.9243 40.2374 18.306 40.5596 17.6104 40.7844C16.9151 41.0311 16.1531 41.1584 15.3246 41.1666Z" fill="white"/>
<path d="M29.4032 40.6356L29.1698 16.9657L33.7159 16.921L33.8503 30.554L39.7975 23.3349L45.1284 23.2824L39.3079 30.0752L45.5923 40.4761L40.3922 40.5273L36.3633 33.3084L33.9015 35.7522L33.9492 40.5908L29.4032 40.6356Z" fill="white"/>
</g>
</g>
</svg>
