<svg width="115" height="96" viewBox="0 0 115 96" fill="none" xmlns="http://www.w3.org/2000/svg">
<path d="M16.3658 89.4719L0.338074 56.8613L48.7182 0.316406L114.907 21.259L91.4589 95.4555L16.3658 89.4719Z" fill="#C8297F"/>
<path d="M29.5347 79.8052C26.1215 79.8388 23.403 78.9269 21.3793 77.0694C19.3556 75.2119 18.3231 72.1926 18.2819 68.0115L18.0599 45.4846L26.9555 45.3969L27.163 66.4519C27.1739 67.5612 27.3111 68.4985 27.5747 69.264C27.8378 69.9868 28.2064 70.5805 28.6803 71.0452C29.1969 71.5094 29.8189 71.8447 30.5463 72.0508C31.2737 72.257 32.0854 72.3557 32.9813 72.3469C34.3039 72.3338 35.4954 72.0021 36.5557 71.3516C37.616 70.7011 38.4393 69.8183 39.0257 68.7031C39.6117 67.5453 39.8977 66.2624 39.8838 64.8545L39.6909 45.2714L48.5864 45.1838L48.9181 78.8461L41.6225 78.918L40.9371 74.3166L40.4891 74.321C39.689 75.3956 38.7383 76.3437 37.637 77.1652C36.5784 77.9863 35.3686 78.617 34.0075 79.0571C32.6469 79.5398 31.1559 79.7892 29.5347 79.8052ZM57.0832 78.7657L56.6267 32.4319L65.5222 32.3443L65.7852 59.031L77.4225 44.8996L87.854 44.7968L76.4645 58.0937L88.7617 78.4535L78.5862 78.5538L70.7026 64.4228L65.8855 69.2065L65.9788 78.678L57.0832 78.7657Z" fill="white"/>
</svg>
