<svg width="100" height="111" viewBox="0 0 100 111" fill="none" xmlns="http://www.w3.org/2000/svg">
<g id="USA">
<path id="Vector 18" d="M0.773415 0V104.751L20.6395 110.553L44.6002 87.8011L43.0837 0H30.0418H0.773415Z" fill="#DC49DC"/>
<path id="Vector 20" d="M51.1057 72.2189V83.856L62.4048 73.7705L51.1057 72.2189Z" fill="#DC49DC"/>
<path id="Vector 21" d="M51.4481 35.9383V66.058H69.4049L81.579 56.9914V39.6264L51.4481 35.9383Z" fill="#DC49DC"/>
<path id="Vector 22" d="M50.7633 0V29.3277L99.0413 36.9651L97.9819 5.34619L50.7633 0Z" fill="#DC49DC"/>
<g id="usa">
<path d="M24.6648 55.9622C24.6648 57.706 24.1851 59.09 23.2257 60.1145C22.2663 61.1389 20.7181 61.6511 18.5813 61.6511H7.06846L7.06846 57.1065H17.829C18.3959 57.1065 18.8756 57.0412 19.2681 56.9104C19.6388 56.7796 19.9441 56.5943 20.1839 56.3546C20.4238 56.093 20.5982 55.777 20.7072 55.4064C20.8162 55.0359 20.8708 54.6217 20.8708 54.164C20.8708 53.4883 20.7072 52.878 20.3802 52.3331C20.0531 51.7882 19.6061 51.3632 19.0392 51.058C18.4505 50.7529 17.7963 50.6003 17.0768 50.6003H7.06846L7.06846 46.0557L24.2723 46.0557V49.7829L21.9174 50.1099V50.3387C22.4625 50.7529 22.9422 51.2433 23.3565 51.81C23.7708 52.3549 24.0869 52.9761 24.305 53.6736C24.5448 54.3711 24.6648 55.134 24.6648 55.9622Z" fill="white"/>
<path d="M24.6648 34.9204C24.6648 36.1192 24.5339 37.1981 24.2723 38.1572C24.0106 39.1162 23.6508 39.9336 23.1929 40.6093C22.7132 41.2849 22.1463 41.8081 21.4922 42.1786C20.8381 42.5273 20.0967 42.7017 19.2681 42.7017C19.1809 42.7017 19.0937 42.7017 19.0065 42.7017C18.9192 42.7017 18.8538 42.6908 18.8102 42.669L18.8102 38.2879C18.8538 38.2879 18.8974 38.2879 18.9411 38.2879C18.9847 38.2879 19.0283 38.2879 19.0719 38.2879C19.617 38.2661 20.064 38.0918 20.4129 37.7648C20.7399 37.4379 20.9798 37.0128 21.1324 36.4897C21.285 35.9448 21.3614 35.3781 21.3614 34.7896C21.3614 34.2665 21.3178 33.7652 21.2305 33.2856C21.1215 32.7843 20.9362 32.3702 20.6745 32.0432C20.4129 31.6945 20.0749 31.5201 19.6606 31.5201C19.1373 31.5201 18.7339 31.7381 18.4505 32.174C18.167 32.5882 17.938 33.144 17.7636 33.8414C17.5892 34.5171 17.3929 35.2582 17.1749 36.0647C17.0004 36.8058 16.8042 37.5468 16.5862 38.2879C16.3463 39.029 16.041 39.7047 15.6704 40.315C15.2997 40.9035 14.82 41.383 14.2313 41.7536C13.6207 42.1241 12.8576 42.3094 11.9418 42.3094C11.0478 42.3094 10.2737 42.1132 9.61959 41.7209C8.94365 41.3285 8.38763 40.7945 7.95154 40.1188C7.51545 39.4213 7.19928 38.6149 7.00304 37.6994C6.785 36.7622 6.67597 35.7595 6.67597 34.6915C6.67597 33.6889 6.785 32.7516 7.00304 31.8798C7.19928 31.0079 7.50455 30.245 7.91884 29.5911C8.31132 28.9372 8.81282 28.425 9.42335 28.0545C10.0121 27.6839 10.6771 27.4987 11.4185 27.4987C11.5711 27.4987 11.7128 27.4987 11.8437 27.4987C11.9745 27.4987 12.0617 27.5096 12.1053 27.5314V31.8798H11.8437C11.4512 31.8798 11.1241 31.9996 10.8625 32.2394C10.579 32.4792 10.3609 32.8279 10.2083 33.2856C10.0557 33.7216 9.97937 34.2556 9.97937 34.8877C9.97937 35.3236 10.0121 35.7268 10.0775 36.0974C10.1429 36.4461 10.241 36.7513 10.3719 37.0128C10.5027 37.2744 10.6662 37.4815 10.8625 37.634C11.0369 37.7648 11.2549 37.8302 11.5166 37.8302C11.8873 37.8302 12.1925 37.6776 12.4324 37.3725C12.6504 37.0455 12.8358 36.6205 12.9884 36.0974C13.141 35.5743 13.3046 34.9967 13.479 34.3646C13.6971 33.5799 13.9151 32.7625 14.1331 31.9125C14.3294 31.0406 14.6019 30.2341 14.9508 29.4931C15.2997 28.752 15.8012 28.1526 16.4553 27.6948C17.0877 27.2371 17.9489 27.0083 19.0392 27.0083C20.0858 27.0083 20.9689 27.2153 21.6884 27.6295C22.408 28.0218 22.9858 28.5776 23.4219 29.2969C23.858 30.0162 24.1742 30.8553 24.3704 31.8144C24.5666 32.7734 24.6648 33.8088 24.6648 34.9204Z" fill="white"/>
<path d="M24.6648 19.1725C24.6648 19.7392 24.5993 20.3495 24.4685 21.0034C24.3377 21.6355 24.1087 22.2349 23.7817 22.8016C23.4328 23.3683 22.9422 23.837 22.3099 24.2075C21.6557 24.5562 20.8271 24.7306 19.8241 24.7306C18.6249 24.7306 17.6328 24.469 16.8478 23.9459C16.0628 23.4228 15.4523 22.6817 15.0162 21.7227C14.5583 20.7419 14.2422 19.5757 14.0677 18.2244C13.8933 16.873 13.8061 15.3799 13.8061 13.7452H12.5305C12.029 13.7452 11.5929 13.8324 11.2222 14.0067C10.8516 14.1593 10.5572 14.4427 10.3391 14.8568C10.1211 15.2491 10.0121 15.805 10.0121 16.5242C10.0121 17.2435 10.0993 17.832 10.2737 18.2897C10.4482 18.7257 10.6771 19.0417 10.9606 19.2379C11.2222 19.4123 11.5166 19.4995 11.8437 19.4995H12.2361L12.2361 23.9132C12.1271 23.935 12.029 23.9459 11.9418 23.9459C11.8328 23.9459 11.7019 23.9459 11.5493 23.9459C10.5463 23.9459 9.68501 23.6408 8.96545 23.0305C8.2241 22.4202 7.65718 21.5592 7.2647 20.4476C6.87221 19.336 6.67597 18.0391 6.67597 16.5569C6.67597 14.9658 6.88312 13.6362 7.2974 12.5682C7.71169 11.4784 8.32222 10.6501 9.12899 10.0834C9.93576 9.49487 10.9497 9.20062 12.1707 9.20062L19.9877 9.20062C20.3802 9.20062 20.6745 9.09164 20.8708 8.87367C21.0452 8.63391 21.1324 8.37235 21.1324 8.089V7.01007L24.1087 7.01007C24.2178 7.22804 24.3268 7.56588 24.4358 8.02361C24.5666 8.48133 24.632 9.03714 24.632 9.69104C24.632 10.3231 24.5339 10.8898 24.3377 11.3912C24.1632 11.8707 23.9125 12.2739 23.5854 12.6009C23.2366 12.9278 22.8223 13.1567 22.3426 13.2875V13.5163C22.8005 13.8869 23.2038 14.3446 23.5527 14.8895C23.9016 15.4126 24.1742 16.0338 24.3704 16.7531C24.5666 17.4506 24.6648 18.2571 24.6648 19.1725ZM21.2305 17.6359C21.2305 17.0256 21.1433 16.4806 20.9689 16.0011C20.7726 15.5216 20.5219 15.1184 20.2166 14.7914C19.8896 14.4645 19.4971 14.2138 19.0392 14.0394C18.5813 13.8433 18.0907 13.7452 17.5674 13.7452H16.6189C16.6189 14.9658 16.7061 16.0556 16.8805 17.0147C17.0332 17.9737 17.3057 18.7366 17.6982 19.3033C18.0907 19.8482 18.6358 20.1207 19.3335 20.1207C19.726 20.1207 20.064 20.0226 20.3474 19.8264C20.6309 19.6302 20.849 19.3469 21.0016 18.9763C21.1542 18.6058 21.2305 18.159 21.2305 17.6359Z" fill="white"/>
</g>
</g>
</svg>
