<svg width="15" height="14" viewBox="0 0 15 14" fill="none" xmlns="http://www.w3.org/2000/svg">
<path d="M10.6858 0.333374H4.62331C2.56448 0.333374 0.889404 2.00845 0.889404 4.06728V10.13C0.889404 12.1888 2.56448 13.8639 4.62331 13.8639H10.686C12.745 13.8639 14.4199 12.1888 14.4199 10.13V4.06728C14.4199 2.00845 12.7448 0.333374 10.686 0.333374H10.6858ZM13.2194 10.13C13.2194 11.527 12.0828 12.6634 10.6858 12.6634H4.62331C3.22646 12.6634 2.0899 11.527 2.0899 10.13V4.06728C2.0899 2.67043 3.22629 1.53387 4.62331 1.53387H10.686C12.083 1.53387 13.2196 2.67043 13.2196 4.06728V10.13H13.2194Z" fill="black"/>
<path d="M7.65432 3.6123C5.7318 3.6123 4.16785 5.17626 4.16785 7.09877C4.16785 9.02129 5.7318 10.5851 7.65432 10.5851C9.57683 10.5851 11.1408 9.02112 11.1408 7.09877C11.1408 5.17643 9.57683 3.6123 7.65432 3.6123ZM7.65432 9.38441C6.39395 9.38441 5.36834 8.35897 5.36834 7.0986C5.36834 5.83824 6.39378 4.81263 7.65432 4.81263C8.91485 4.81263 9.94029 5.83807 9.94029 7.0986C9.94029 8.35897 8.91468 9.38441 7.65432 9.38441Z" fill="black"/>
<path d="M11.2879 2.59436C11.0565 2.59436 10.8294 2.68806 10.666 2.85212C10.5018 3.01533 10.4076 3.24264 10.4076 3.47469C10.4076 3.70674 10.502 3.9332 10.666 4.09726C10.8292 4.26047 11.0565 4.35501 11.2879 4.35501C11.5193 4.35501 11.7464 4.26064 11.9105 4.09726C12.0745 3.9332 12.1682 3.70589 12.1682 3.47469C12.1682 3.24349 12.0745 3.01533 11.9105 2.85212C11.7473 2.68806 11.52 2.59436 11.2879 2.59436Z" fill="black"/>
</svg>
