<svg width="16" height="16" viewBox="0 0 16 16" fill="none" xmlns="http://www.w3.org/2000/svg">
<path d="M0.420995 13.6458C0.606146 13.6733 0.760707 13.7031 0.916341 13.7171C2.24513 13.8397 3.45586 13.5032 4.497 12.5157C4.52276 12.4913 4.55013 12.4682 4.57159 12.4395C4.60433 12.3962 4.6741 12.3682 4.64941 12.2969C4.63063 12.2414 4.56945 12.253 4.52383 12.2451C4.13689 12.1774 3.76766 12.047 3.42473 11.83C2.7174 11.3819 2.28485 10.6968 2.08896 9.80989C2.05408 9.65079 2.05462 9.57277 2.24621 9.62702C2.55264 9.71358 2.8666 9.67822 3.2208 9.60873C2.69325 9.42282 2.24782 9.16863 1.89254 8.74438C1.24103 7.96598 1.0006 7.01385 0.999524 5.96359C0.999524 5.9197 0.989328 5.86362 1.03119 5.84046C1.08485 5.8112 1.11383 5.87277 1.14979 5.90263C1.49058 6.18486 1.83243 6.31652 2.22689 6.30067C2.09594 6.15621 1.97412 6.03917 1.87054 5.90446C1.03333 4.81884 0.87287 3.56742 1.18414 2.20568C1.22761 2.01489 1.2904 1.82897 1.35319 1.64428C1.44711 1.36815 1.45784 1.36754 1.63333 1.57479C2.36588 2.43975 3.16767 3.2084 4.05907 3.85392C4.91291 4.47261 5.8172 4.95599 6.82346 5.15532C7.0671 5.20347 7.31343 5.2309 7.56191 5.22968C7.6993 5.22968 7.7417 5.1925 7.72721 5.01756C7.65637 4.13248 7.71647 3.26691 8.0959 2.46352C8.65135 1.28769 10.058 0.422725 11.5 0.935362C12.0023 1.11396 12.4542 1.37851 12.8089 1.82775C12.8969 1.9393 12.9882 1.93503 13.0982 1.90395C13.6327 1.75217 14.0948 1.42727 14.5638 1.11823C14.6518 1.06032 14.7506 0.906713 14.8359 0.987174C14.9191 1.0652 14.8413 1.22978 14.8123 1.35108C14.6577 1.9966 14.2826 2.46839 13.8592 2.90118C13.8152 2.94629 13.7696 2.98835 13.7003 3.05601C14.0551 3.09929 14.3787 3.04382 14.7018 3.04138C14.8171 3.04077 14.9857 2.96396 15.0366 3.09075C15.0908 3.22485 14.9416 3.34067 14.8606 3.4449C14.5933 3.78869 14.2858 4.08616 13.9585 4.35009C13.7932 4.48298 13.7519 4.63293 13.7599 4.84932C13.8216 6.46281 13.5962 8.0245 13.0273 9.50633C12.1837 11.7056 10.8088 13.3563 8.93095 14.4352C8.09697 14.9143 7.17497 15.1289 6.25298 15.2855C5.09753 15.4818 3.9453 15.4684 2.80756 15.1234C2.02993 14.8875 1.30757 14.5169 0.667863 13.9543C0.599169 13.8939 0.535842 13.8256 0.473052 13.7574C0.455879 13.7391 0.449439 13.708 0.419922 13.644L0.420995 13.6458Z" fill="black"/>
</svg>
