<svg width="20" height="17" viewBox="0 0 20 17" fill="none" xmlns="http://www.w3.org/2000/svg">
<path d="M9.56183 16.1957C8.55418 16.1957 7.54634 16.2003 6.53869 16.1939C5.94576 16.1901 5.35283 16.1667 4.75989 16.1573C4.54389 16.154 4.35194 16.093 4.17293 15.9739C3.84454 15.7556 3.52669 15.5233 3.22655 15.268C2.84067 14.9397 2.47012 14.5948 2.13118 14.217C1.76281 13.8063 1.4201 13.3769 1.21205 12.8599C1.08435 12.5424 1.02428 12.2059 0.976747 11.8674C0.955464 11.7161 0.93438 11.5695 0.974956 11.4171C1.01513 11.2665 1.05492 11.2254 1.21324 11.2254C2.71158 11.2254 4.20973 11.2254 5.70807 11.2254C5.85585 11.2254 5.85983 11.2259 5.85406 11.3748C5.83775 11.7944 5.95431 12.1712 6.20593 12.508C6.38673 12.75 6.63218 12.8917 6.91641 12.9714C7.61774 13.1681 8.33678 13.1621 9.05602 13.1516C9.11867 13.1506 9.18172 13.1343 9.24398 13.1373C9.33329 13.1414 9.35716 13.1021 9.35676 13.0188C9.35417 12.5221 9.35557 12.0253 9.35576 11.5288C9.35576 11.4692 9.35179 11.4092 9.35656 11.3499C9.36372 11.2601 9.32832 11.225 9.23702 11.2269C9.04826 11.2313 8.8591 11.2281 8.67014 11.2281C8.1697 11.2281 7.66906 11.2285 7.16862 11.2273C7.12466 11.2273 7.0634 11.2494 7.04112 11.2005C7.01725 11.1477 7.0813 11.1264 7.11014 11.093C7.30029 10.8719 7.47732 10.6408 7.63962 10.3984C7.99646 9.86503 8.29382 9.29952 8.51599 8.69845C8.68824 8.23269 8.82091 7.75382 8.8961 7.26064C8.96552 6.80462 8.99336 6.3472 8.97765 5.88621C8.95915 5.34653 8.8591 4.82136 8.71032 4.30434C8.57467 3.83262 8.3871 3.38097 8.16513 2.94362C7.86299 2.34811 7.4984 1.79294 7.07533 1.27611C7.03675 1.22902 6.95758 1.17338 6.98165 1.12828C7.00671 1.08119 7.09681 1.11397 7.15828 1.11894C7.66369 1.15868 8.16731 1.21332 8.66557 1.30771C8.87044 1.34645 9.0777 1.38421 9.26467 1.48097C9.36213 1.53145 9.36094 1.48256 9.36054 1.41342C9.35875 1.14855 9.35636 0.883675 9.35676 0.618804C9.35676 0.549656 9.36074 0.479514 9.37187 0.411359C9.40688 0.199343 9.57496 0.0465407 9.78918 0.0175301C10.0342 -0.0156532 10.2793 0.00560799 10.5231 0.0215042C10.7736 0.0377978 10.9468 0.266703 10.947 0.549258C10.947 0.989583 10.9514 1.43011 10.9446 1.87043C10.9428 1.99065 10.9776 2.0594 11.084 2.12358C11.5952 2.43197 12.0716 2.78923 12.5247 3.1779C13.1586 3.72174 13.7289 4.32222 14.1873 5.02364C14.3799 5.31832 14.5422 5.62869 14.6729 5.95516C14.8767 6.46463 14.9881 6.99139 14.9684 7.54279C14.9471 8.1395 14.7514 8.67739 14.4123 9.16341C13.9916 9.76667 13.4285 10.2082 12.7982 10.5762C12.2977 10.8685 11.7697 11.0938 11.2205 11.273C11.1515 11.2955 11.128 11.333 11.1282 11.403C11.1302 11.9526 11.1306 12.5024 11.1286 13.052C11.1284 13.1301 11.1576 13.1565 11.234 13.1557C11.8643 13.1492 12.4919 13.1132 13.1083 12.9698C13.4884 12.8813 13.8025 12.6679 14.1058 12.4333C14.566 12.077 15.0038 11.6917 15.49 11.3686C15.9136 11.0871 16.3779 10.9017 16.8656 10.7675C17.4376 10.6102 18.0156 10.4816 18.604 10.4039C18.8266 10.3745 19.0509 10.3558 19.2765 10.3679C19.4646 10.3781 19.5949 10.5128 19.6033 10.6992C19.6118 10.8897 19.5472 11.0563 19.4511 11.2148C19.4117 11.2798 19.3527 11.3217 19.287 11.3549C18.7663 11.619 18.2995 11.9596 17.872 12.3548C17.7002 12.5137 17.5834 12.7164 17.4593 12.9117C17.1257 13.4369 16.7874 13.9585 16.4338 14.4706C16.1531 14.8767 15.8561 15.2689 15.5146 15.626C15.3519 15.7961 15.1797 15.9569 14.9666 16.065C14.8805 16.1087 14.7902 16.1367 14.6914 16.1405C12.9822 16.2056 11.2722 16.1975 9.56223 16.1951L9.56183 16.1957Z" fill="black"/>
<path d="M4.45643 9.57944C3.7905 9.57944 3.12437 9.57944 2.45844 9.57944C2.43199 9.57944 2.40534 9.57944 2.37888 9.57765C2.3216 9.57407 2.31046 9.54626 2.3393 9.49896C2.40633 9.38868 2.47237 9.27781 2.54039 9.16813C2.93462 8.53267 3.33044 7.89822 3.72327 7.26197C4.19607 6.49637 4.66588 5.72918 5.13807 4.96318C5.47104 4.42291 5.80579 3.88363 6.13936 3.34375C6.19684 3.25096 6.25213 3.15678 6.31002 3.06418C6.36929 2.9696 6.41026 2.96801 6.48505 3.05246C6.65074 3.23904 6.7486 3.46397 6.84208 3.69029C7.11379 4.34879 7.27112 5.03789 7.38668 5.73832C7.44715 6.10453 7.49449 6.47272 7.49906 6.84271C7.50523 7.34185 7.42547 7.83185 7.25719 8.30397C7.11796 8.69482 6.93736 9.0652 6.70564 9.41134C6.62747 9.52817 6.54631 9.58659 6.39435 9.58421C5.74831 9.57407 5.10207 9.57984 4.45603 9.57984V9.57924L4.45643 9.57944Z" fill="black"/>
</svg>
