<svg width="19" height="14" viewBox="0 0 19 14" fill="none" xmlns="http://www.w3.org/2000/svg">
<g clip-path="url(#clip0_952_224)">
<path fill-rule="evenodd" clip-rule="evenodd" d="M16.8905 0.794312C17.6775 1.01456 18.2968 1.66374 18.5072 2.48791L18.5075 2.48817C18.8896 3.98213 18.8896 7.09906 18.8896 7.09906C18.8896 7.09906 18.8896 10.2157 18.5075 11.7099C18.2971 12.5339 17.6775 13.183 16.8908 13.4033C15.4649 13.8036 9.74681 13.8036 9.74681 13.8036C9.74681 13.8036 4.02875 13.8036 2.60286 13.4033C1.81588 13.1828 1.19629 12.5339 0.986142 11.7097C0.604004 10.2157 0.604004 7.0988 0.604004 7.0988C0.604004 7.0988 0.604004 3.98188 0.986142 2.48791C1.19629 1.66374 1.81588 1.01456 2.60262 0.794312C4.02851 0.394043 9.74657 0.394043 9.74657 0.394043C9.74657 0.394043 15.4646 0.394043 16.8905 0.794312ZM12.6556 7.09881L7.87646 9.9286V4.26877L12.6556 7.09881Z" fill="black"/>
</g>
<defs>
<clipPath id="clip0_952_224">
<rect width="18.2854" height="13.4093" fill="white" transform="translate(0.604004 0.394043)"/>
</clipPath>
</defs>
</svg>
