<svg width="283" height="285" viewBox="0 0 283 285" fill="none" xmlns="http://www.w3.org/2000/svg">
<path d="M58.4309 153.657L35.5171 224.14L90.9925 236.736L113.906 165.654L94.6105 158.456L58.4309 153.657Z" fill="#EBFF00"/>
<path d="M125.157 168.396L102.516 240.69L263.381 284.305L282.745 221.272L194.269 180.047L125.157 168.396Z" fill="#EBFF00"/>
<path d="M87.1065 33.0576L0.677368 110.88L78.4933 134.227L87.1065 33.0576Z" fill="#EBFF00"/>
<path d="M90.4565 136.401L98.9867 26.4682L126.636 8.93848L120.165 142.937L90.4565 136.401Z" fill="#EBFF00"/>
<path d="M182.865 0.898438H147.245L143.386 102.067H190.286L182.865 0.898438Z" fill="#EBFF00"/>
<path d="M143.386 109.438V146.891L194.305 157.677L190.711 112.434L143.386 109.438Z" fill="#EBFF00"/>
<path d="M213.813 163.576L211.725 132.217H265.995L243.929 177.776L213.813 163.576Z" fill="#EBFF00"/>
<path d="M161.671 238.235C160.591 237.982 159.457 237.584 158.269 237.042C157.123 236.511 156.083 235.807 155.149 234.93C154.225 234.012 153.551 232.868 153.127 231.498C152.755 230.096 152.793 228.439 153.241 226.528C153.777 224.244 154.719 222.471 156.067 221.209C157.415 219.948 159.1 219.116 161.122 218.714C163.196 218.28 165.56 218.199 168.213 218.471C170.867 218.743 173.751 219.244 176.866 219.975L177.436 217.545C177.661 216.589 177.689 215.72 177.523 214.935C177.398 214.161 176.989 213.474 176.297 212.873C175.647 212.282 174.636 211.826 173.266 211.505C171.895 211.183 170.734 211.086 169.784 211.214C168.875 211.351 168.171 211.646 167.67 212.098C167.221 212.519 166.923 213.041 166.777 213.664L166.602 214.411L158.19 212.438C158.197 212.221 158.22 212.029 158.259 211.863C158.308 211.655 158.366 211.406 158.435 211.115C158.883 209.204 159.849 207.7 161.334 206.602C162.828 205.463 164.723 204.767 167.016 204.517C169.31 204.266 171.87 204.472 174.694 205.134C177.727 205.846 180.168 206.835 182.018 208.101C183.91 209.378 185.216 210.911 185.935 212.702C186.696 214.502 186.804 216.565 186.258 218.891L182.765 233.783C182.589 234.53 182.666 235.14 182.993 235.611C183.372 236.051 183.832 236.334 184.372 236.46L186.428 236.943L185.098 242.613C184.634 242.723 183.941 242.78 183.02 242.783C182.089 242.827 181.001 242.704 179.755 242.411C178.55 242.129 177.514 241.688 176.646 241.09C175.81 240.544 175.154 239.886 174.677 239.117C174.21 238.306 173.959 237.414 173.924 236.442L173.488 236.34C172.577 237.046 171.524 237.61 170.33 238.031C169.177 238.462 167.871 238.703 166.413 238.756C164.996 238.818 163.415 238.644 161.671 238.235ZM166.134 232.379C167.297 232.652 168.374 232.73 169.366 232.612C170.368 232.452 171.248 232.155 172.008 231.719C172.777 231.243 173.43 230.607 173.967 229.813C174.545 229.028 174.952 228.137 175.186 227.14L175.609 225.333C173.283 224.788 171.167 224.467 169.262 224.37C167.366 224.232 165.79 224.41 164.535 224.905C163.321 225.409 162.558 226.325 162.246 227.655C162.071 228.402 162.107 229.09 162.354 229.718C162.601 230.345 163.043 230.888 163.681 231.344C164.319 231.8 165.137 232.146 166.134 232.379ZM189.329 243.934L197.017 211.16L204.183 212.841L203.669 218.111L204.106 218.213C204.774 217.23 205.543 216.381 206.413 215.665C207.292 214.907 208.293 214.375 209.417 214.068C210.54 213.762 211.767 213.765 213.096 214.077C213.802 214.243 214.426 214.477 214.969 214.779C215.521 215.04 215.928 215.267 216.19 215.46L214.348 223.311L211.669 222.682C210.381 222.38 209.195 222.299 208.11 222.439C207.077 222.547 206.14 222.897 205.3 223.489C204.46 224.081 203.747 224.878 203.162 225.88C202.618 226.892 202.175 228.125 201.834 229.579L197.99 245.966L189.329 243.934ZM215.61 262.458C214.156 262.117 212.858 261.483 211.716 260.558C210.565 259.675 209.731 258.559 209.215 257.211C208.698 255.862 208.63 254.378 209.01 252.758C209.439 250.93 210.299 249.598 211.591 248.762C212.934 247.894 214.334 247.346 215.79 247.117C214.961 246.353 214.337 245.462 213.919 244.443C213.542 243.435 213.49 242.349 213.763 241.186C214.143 239.566 215.031 238.394 216.428 237.669C217.877 236.914 219.403 236.571 221.008 236.64C219.696 235.324 218.774 233.837 218.242 232.179C217.762 230.488 217.737 228.729 218.165 226.902C218.721 224.534 219.77 222.676 221.313 221.329C222.898 219.992 224.888 219.166 227.285 218.852C229.733 218.505 232.473 218.688 235.505 219.399C236.71 219.682 237.817 220.007 238.826 220.376C239.877 220.754 240.804 221.19 241.608 221.686C243.359 221.132 244.632 220.379 245.425 219.426C246.27 218.44 246.791 217.62 246.988 216.966L255.026 218.851C254.666 220.388 254.063 221.649 253.218 222.634C252.415 223.629 251.407 224.379 250.193 224.883C248.989 225.345 247.621 225.572 246.089 225.563C246.955 226.731 247.527 228.026 247.807 229.45C248.086 230.875 248.05 232.334 247.7 233.83C247.154 236.156 246.125 238.018 244.614 239.417C243.113 240.774 241.221 241.645 238.939 242.03C236.699 242.425 234.146 242.286 231.28 241.614L226.295 240.444C225.298 240.21 224.507 240.222 223.921 240.479C223.344 240.694 222.978 241.134 222.822 241.799C222.696 242.339 222.791 242.865 223.109 243.378C223.478 243.859 224.161 244.217 225.158 244.45L238.804 247.651C241.546 248.295 243.527 249.658 244.747 251.741C246.019 253.792 246.348 256.126 245.734 258.743C245.266 260.737 244.333 262.381 242.934 263.674C241.535 264.967 239.819 265.836 237.787 266.279C235.754 266.723 233.554 266.667 231.187 266.112L215.61 262.458ZM220.583 257.511L232.11 260.215C232.858 260.39 233.556 260.401 234.206 260.246C234.846 260.133 235.391 259.867 235.84 259.446C236.279 259.067 236.572 258.566 236.718 257.943C236.972 256.863 236.829 255.975 236.292 255.279C235.754 254.583 234.986 254.118 233.989 253.885L222.088 251.093C221.091 250.859 220.192 250.955 219.391 251.381C218.632 251.816 218.14 252.511 217.916 253.467C217.692 254.422 217.823 255.264 218.31 255.991C218.828 256.77 219.586 257.277 220.583 257.511ZM231.661 235.787C233.696 236.264 235.34 236.168 236.593 235.497C237.897 234.795 238.754 233.572 239.163 231.827C239.573 230.083 239.344 228.627 238.479 227.46C237.664 226.261 236.24 225.422 234.204 224.945C232.21 224.477 230.561 224.594 229.257 225.296C228.004 225.967 227.173 227.174 226.764 228.919C226.501 230.04 226.5 231.07 226.762 232.008C227.024 232.946 227.564 233.73 228.38 234.36C229.197 234.989 230.29 235.465 231.661 235.787Z" fill="#EBFF00"/>
</svg>
