<svg width="189" height="152" viewBox="0 0 189 152" fill="none" xmlns="http://www.w3.org/2000/svg">
<path d="M10.9386 151.526L0.529785 4.79785H52.5739L58.8192 148.538L10.9386 151.526Z" fill="#EBFF00"/>
<path d="M72.9455 148.846L65.519 3.08268L148.398 0.10791L188.798 14.3868L72.9455 148.846Z" fill="#EBFF00"/>
<path d="M102.47 61.1701C100.294 61.1915 98.2849 60.7846 96.4419 59.9494C94.6412 59.0711 93.1774 57.7415 92.0504 55.9605L91.6024 55.9649L90.9433 60.5156L83.6476 60.5875L83.1917 14.3178L92.0872 14.2301L92.248 30.5493L92.632 30.5455C93.305 29.5575 94.1287 28.7174 95.1033 28.0251C96.0779 27.3328 97.1823 26.8312 98.4166 26.5204C99.6506 26.1668 100.993 25.9829 102.443 25.9686C105.089 25.9426 107.399 26.5385 109.373 27.7564C111.391 28.974 112.967 30.8785 114.102 33.4701C115.236 36.0191 115.824 39.3201 115.864 43.3733C115.903 47.4264 115.382 50.7597 114.298 53.3732C113.257 55.9862 111.719 57.9428 109.684 59.2429C107.691 60.5 105.286 61.1423 102.47 61.1701ZM99.6465 53.9016C101.438 53.8839 102.843 53.5287 103.86 52.836C104.92 52.1002 105.677 51.026 106.133 49.6134C106.588 48.2009 106.805 46.428 106.784 44.2948L106.77 42.8228C106.749 40.6896 106.497 38.9213 106.013 37.518C105.53 36.0721 104.751 35.013 103.678 34.3409C102.647 33.6257 101.235 33.2769 99.4434 33.2946C98.1635 33.3072 97.0779 33.5526 96.1865 34.0307C95.2948 34.4662 94.5545 35.1135 93.9656 35.9727C93.4189 36.7888 93.0024 37.8169 92.7159 39.0571C92.4294 40.2973 92.2936 41.6641 92.3083 43.1573L92.3196 44.3093C92.3394 46.3145 92.6124 48.0399 93.1387 49.4855C93.6649 50.931 94.4652 52.0325 95.5394 52.79C96.6135 53.5474 97.9826 53.918 99.6465 53.9016ZM122.583 60.2039L122.252 26.5415L129.611 26.469L130.367 31.7098L130.815 31.7054C131.231 30.5919 131.775 29.5838 132.449 28.6811C133.122 27.7358 133.968 26.9807 134.987 26.416C136.005 25.8513 137.197 25.5622 138.563 25.5487C139.288 25.5416 139.95 25.6204 140.549 25.7852C141.148 25.9073 141.597 26.0308 141.897 26.1559L141.976 34.2195L139.224 34.2466C137.902 34.2597 136.73 34.4632 135.71 34.8573C134.732 35.2083 133.906 35.7711 133.231 36.5458C132.556 37.3205 132.053 38.2641 131.722 39.3768C131.435 40.489 131.298 41.7918 131.313 43.285L131.479 60.1162L122.583 60.2039Z" fill="#EBFF00"/>
</svg>
