<svg width="189" height="152" viewBox="0 0 189 152" fill="none" xmlns="http://www.w3.org/2000/svg">
<path d="M10.9385 151.525L0.529663 4.79688H52.5738L58.8191 148.537L10.9385 151.525Z" fill="#EBFF00"/>
<path d="M72.9455 148.846L65.519 3.08219L148.398 0.107422L188.798 14.3863L72.9455 148.846Z" fill="#EBFF00"/>
<path d="M102.47 61.1694C100.294 61.1908 98.2849 60.7839 96.4419 59.9487C94.6412 59.0704 93.1774 57.7408 92.0504 55.9598L91.6024 55.9642L90.9433 60.5149L83.6476 60.5868L83.1917 14.317L92.0872 14.2294L92.248 30.5486L92.632 30.5448C93.305 29.5568 94.1287 28.7166 95.1033 28.0243C96.0779 27.332 97.1823 26.8305 98.4166 26.5196C99.6506 26.1661 100.993 25.9822 102.443 25.9679C105.089 25.9418 107.399 26.5378 109.373 27.7557C111.391 28.9732 112.967 30.8778 114.102 33.4694C115.236 36.0183 115.824 39.3194 115.864 43.3725C115.903 47.4257 115.382 50.759 114.298 53.3724C113.257 55.9855 111.719 57.9421 109.684 59.2422C107.691 60.4992 105.286 61.1416 102.47 61.1694ZM99.6465 53.9008C101.438 53.8832 102.843 53.528 103.86 52.8353C104.92 52.0994 105.677 51.0253 106.133 49.6127C106.588 48.2002 106.805 46.4273 106.784 44.294L106.77 42.8221C106.749 40.6889 106.497 38.9206 106.013 37.5173C105.53 36.0713 104.751 35.0123 103.678 34.3402C102.647 33.6249 101.235 33.2762 99.4434 33.2938C98.1635 33.3064 97.0779 33.5518 96.1865 34.03C95.2948 34.4654 94.5545 35.1128 93.9656 35.9719C93.4189 36.788 93.0024 37.8162 92.7159 39.0564C92.4294 40.2966 92.2936 41.6634 92.3083 43.1566L92.3196 44.3086C92.3394 46.3138 92.6124 48.0392 93.1387 49.4847C93.6649 50.9303 94.4652 52.0318 95.5394 52.7892C96.6135 53.5467 97.9826 53.9172 99.6465 53.9008ZM122.583 60.2031L122.252 26.5408L129.611 26.4682L130.367 31.709L130.815 31.7046C131.231 30.5911 131.775 29.5831 132.449 28.6804C133.122 27.735 133.968 26.98 134.987 26.4153C136.005 25.8505 137.197 25.5614 138.563 25.548C139.288 25.5408 139.95 25.6196 140.549 25.7844C141.148 25.9065 141.597 26.0301 141.897 26.1552L141.976 34.2188L139.224 34.2459C137.902 34.2589 136.73 34.4625 135.71 34.8565C134.732 35.2075 133.906 35.7704 133.231 36.5451C132.556 37.3197 132.053 38.2634 131.722 39.3761C131.435 40.4883 131.298 41.791 131.313 43.2843L131.479 60.1155L122.583 60.2031Z" fill="#EBFF00"/>
</svg>
