<svg width="122" height="76" viewBox="0 0 122 76" fill="none" xmlns="http://www.w3.org/2000/svg">
<path d="M3.30948 68.7312L0.0253906 13.9659L112.879 0.499023L121.537 39.104L53.4665 74.7164L3.30948 68.7312Z" fill="#EBFF00"/>
<path d="M35.1835 61.3163L34.9193 34.5016L30.1195 34.5489L30.0521 27.7012L34.8518 27.6539L34.8152 23.9421C34.7972 22.1075 35.0798 20.4833 35.6633 19.0695C36.2889 17.6126 37.2804 16.4721 38.6377 15.648C39.995 14.824 41.8042 14.4008 44.0655 14.3785C44.7054 14.3722 45.3671 14.4083 46.0506 14.4869C46.7768 14.5651 47.4607 14.6864 48.1023 14.8507C48.7862 14.972 49.3636 15.1157 49.8346 15.2817L49.8927 21.1694L46.6928 21.2009C45.6689 21.211 44.9034 21.4746 44.3965 21.9916C43.9322 22.5082 43.7049 23.2571 43.7146 24.2384L43.7474 27.5663L49.9551 27.5051L50.0226 34.3528L43.8149 34.4139L44.0791 61.2286L35.1835 61.3163ZM54.0663 22.5363L53.9907 14.8567L62.8222 14.7697L62.8979 22.4493L54.0663 22.5363ZM54.4466 61.1265L54.1149 27.4641L62.9465 27.3771L63.2782 61.0394L54.4466 61.1265Z" fill="#EBFF00"/>
</svg>
