<svg width="113" height="97" viewBox="0 0 113 97" fill="none" xmlns="http://www.w3.org/2000/svg">
<path d="M4.68994 96.348V67.9456L112.559 65.5283V96.348H4.68994Z" fill="#EBFF00"/>
<path d="M0 6.60036L4.19102 54.8082H112.559L107.769 3.88867L0 6.60036Z" fill="#EBFF00"/>
<path d="M20.2005 13.7243L20.1437 7.96459L26.8154 7.89885L26.8722 13.6586L20.2005 13.7243ZM20.4306 51.6919C19.9827 51.6963 19.4704 51.6694 18.8938 51.611C18.3492 51.5524 17.8042 51.4618 17.259 51.3391C16.7141 51.2485 16.2648 51.1249 15.9113 50.9684L15.8682 46.6006L18.2681 46.577C19.0041 46.5697 19.562 46.3562 19.9419 45.9364C20.3221 45.5487 20.5084 44.9708 20.5008 44.2028L20.2369 17.4201L26.9086 17.3544L27.1777 44.6651C27.1903 45.945 26.9779 47.1152 26.5403 48.1755C26.1347 49.2356 25.4389 50.0745 24.453 50.6922C23.4993 51.3416 22.1586 51.6749 20.4306 51.6919ZM33.2255 51.0858L32.8926 17.2954L38.3643 17.2415L38.9738 20.6437L39.3098 20.6404C40.1282 19.2562 41.2062 18.2375 42.5439 17.5843C43.8815 16.9311 45.3663 16.5965 46.9982 16.5804C49.1101 16.5596 50.9226 17.0057 52.4357 17.9189C53.9807 18.8317 55.1629 20.2601 55.982 22.2041C56.8332 24.1479 57.274 26.6556 57.3042 29.7275C57.3336 32.7033 56.9419 35.1713 56.1291 37.1314C55.3164 39.0915 54.1628 40.559 52.6684 41.5337C51.2056 42.4762 49.4822 42.9572 47.4983 42.9768C46.4104 42.9875 45.4012 42.8694 44.4707 42.6226C43.5405 42.4077 42.7049 42.0479 41.9639 41.5432C41.2229 41.0385 40.5928 40.4207 40.0736 39.6898L39.7856 39.6926L39.8972 51.02L33.2255 51.0858ZM45.1405 37.5277C46.4845 37.5145 47.5379 37.2481 48.3008 36.7285C49.0954 36.1767 49.6635 35.371 50.0051 34.3116C50.3463 33.2202 50.5092 31.8905 50.4938 30.3226L50.4829 29.2187C50.4671 27.6187 50.2781 26.2925 49.9157 25.2401C49.553 24.1556 48.9691 23.3613 48.1641 22.8572C47.3908 22.3208 46.3322 22.0592 44.9882 22.0725C43.7403 22.0848 42.7192 22.3828 41.9249 22.9667C41.1306 23.5506 40.5468 24.3883 40.1736 25.4801C39.8003 26.5718 39.6212 27.8856 39.6364 29.4216L39.6444 30.2375C39.6554 31.3575 39.7775 32.3803 40.0107 33.3061C40.2435 34.1998 40.571 34.9646 40.9933 35.6005C41.4476 36.236 42.0125 36.7265 42.6879 37.0719C43.363 37.3852 44.1806 37.5372 45.1405 37.5277ZM62.3431 42.2544L62.0943 17.0077L67.614 16.9533L68.176 20.4039L68.512 20.4006C69.0798 19.563 69.7607 18.8362 70.5546 18.2204C71.3806 17.6042 72.304 17.1311 73.3248 16.801C74.3456 16.4709 75.4639 16.2999 76.6799 16.2879C78.3438 16.2715 79.8027 16.5611 81.0567 17.1568C82.3106 17.7525 83.28 18.703 83.9649 20.0083C84.6818 21.3133 85.0506 23.0217 85.0715 25.1336L85.2379 42.0288L78.5663 42.0946L78.4102 26.2553C78.4023 25.4554 78.2997 24.7844 78.1023 24.2423C77.9047 23.6682 77.6121 23.2071 77.2247 22.8589C76.8689 22.4783 76.4182 22.2108 75.8727 22.0561C75.3271 21.9015 74.7184 21.8275 74.0464 21.8341C73.0545 21.8439 72.1609 22.0927 71.3656 22.5806C70.5704 23.0684 69.9529 23.7306 69.5131 24.5669C69.0733 25.4033 68.8588 26.3655 68.8695 27.4534L69.0147 42.1887L62.3431 42.2544Z" fill="#EBFF00"/>
</svg>
