<svg width="69" height="159" viewBox="0 0 69 159" fill="none" xmlns="http://www.w3.org/2000/svg">
<path d="M0.579102 5.58465L10.9669 158.338H64.9837L68.2484 2.89954L0.579102 5.58465Z" fill="#EBFF00"/>
<path d="M7.64761 56.558L7.19103 10.2242L16.0866 10.1366L16.3496 36.8233L27.9869 22.6919L38.4184 22.5891L27.0289 35.886L39.3261 56.2458L29.1506 56.3461L21.2669 42.2151L16.4498 46.9988L16.5432 56.4703L7.64761 56.558ZM44.1458 56.1983L43.8141 22.536L51.1738 22.4634L51.9294 27.7043L52.3774 27.6998C52.7931 26.5864 53.3379 25.5783 54.0117 24.6756C54.6851 23.7302 55.531 22.9752 56.5495 22.4105C57.568 21.8457 58.7599 21.5566 60.1251 21.5432C60.8504 21.536 61.5126 21.6149 62.1116 21.7796C62.7101 21.9017 63.1594 22.0253 63.4593 22.1504L63.5387 30.214L60.7869 30.2411C59.4643 30.2541 58.2929 30.4577 57.2727 30.8518C56.2948 31.2027 55.4683 31.7656 54.7932 32.5403C54.1182 33.315 53.6154 34.2586 53.2851 35.3713C52.9973 36.4835 52.8608 37.7862 52.8756 39.2795L53.0414 56.1107L44.1458 56.1983Z" fill="#EBFF00"/>
</svg>
