<svg width="124" height="133" viewBox="0 0 124 133" fill="none" xmlns="http://www.w3.org/2000/svg">
<path d="M24.5016 51.8672L0.0249023 97.8675L77.6338 132.887L123.304 71.7512L102.409 49.1962L113.752 29.9058L83.6038 0.228271L24.5016 51.8672Z" fill="#EBFF00"/>
<path d="M21.0438 90.1842C19.4514 89.4346 18.1 88.5863 16.9896 87.6391C15.8793 86.692 15.0184 85.7032 14.4071 84.6727C13.8094 83.6133 13.4689 82.5334 13.3856 81.4331C13.3312 80.3465 13.563 79.2531 14.0809 78.1529C14.1354 78.0371 14.1899 77.9213 14.2444 77.8054C14.299 77.6896 14.3543 77.6096 14.4105 77.5653L20.23 80.3048C20.2027 80.3627 20.1755 80.4206 20.1482 80.4785C20.121 80.5364 20.0937 80.5943 20.0664 80.6522C19.7547 81.3896 19.7069 82.0922 19.9231 82.7599C20.153 83.3986 20.5676 83.9828 21.1671 84.5126C21.7955 85.056 22.5006 85.5117 23.2823 85.8797C23.9771 86.2068 24.6703 86.4623 25.3618 86.6464C26.0958 86.8151 26.7618 86.8279 27.3596 86.6849C27.9864 86.5556 28.4293 86.2158 28.6882 85.6657C29.0153 84.9709 28.9779 84.299 28.5761 83.65C28.2031 83.0147 27.608 82.3631 26.7905 81.6954C26.002 81.0413 25.1403 80.3173 24.2053 79.5235C23.33 78.8285 22.4683 78.1045 21.6202 77.3516C20.7857 76.5697 20.079 75.7419 19.5 74.8681C18.95 74.0079 18.6129 73.0711 18.4886 72.0577C18.3781 71.0153 18.609 69.8862 19.1814 68.6702C19.7402 67.4831 20.4846 66.578 21.4146 65.9547C22.3583 65.3025 23.4152 64.8981 24.5853 64.7416C25.7843 64.5986 27.0532 64.6831 28.3919 64.995C29.7731 65.2915 31.1731 65.7737 32.5917 66.4415C33.9236 67.0684 35.1004 67.7992 36.1222 68.6339C37.1576 69.4397 37.9801 70.322 38.5898 71.281C39.213 72.211 39.5799 73.1972 39.6905 74.2396C39.8147 75.253 39.6451 76.2519 39.1817 77.2363C39.0863 77.4389 38.9978 77.6271 38.916 77.8008C38.8342 77.9745 38.7652 78.0835 38.709 78.1278L32.933 75.4088L33.0965 75.0614C33.3418 74.5402 33.387 74.031 33.2321 73.5336C33.0908 73.0073 32.7639 72.4997 32.2513 72.0109C31.7676 71.5356 31.106 71.1004 30.2664 70.7051C29.6873 70.4325 29.1312 70.2238 28.5982 70.079C28.094 69.9478 27.6274 69.8873 27.1982 69.8974C26.769 69.9076 26.3917 69.9953 26.0664 70.1604C25.7836 70.3103 25.5605 70.5589 25.3969 70.9064C25.1652 71.3985 25.1771 71.8993 25.4325 72.4086C25.7305 72.9025 26.1792 73.4144 26.7787 73.9442C27.3781 74.4739 28.0432 75.0522 28.7738 75.6791C29.6798 76.4593 30.6292 77.2599 31.622 78.081C32.6575 78.8867 33.5584 79.7529 34.3247 80.6795C35.091 81.6061 35.5737 82.6468 35.7729 83.8016C35.9856 84.9275 35.7513 86.2142 35.0698 87.6618C34.4156 89.0515 33.5886 90.0946 32.5887 90.7911C31.6178 91.5012 30.5184 91.9209 29.2904 92.0502C28.0623 92.1795 26.7501 92.0746 25.3535 91.7355C23.9569 91.3964 22.5203 90.8793 21.0438 90.1842ZM32.5316 104.399L46.9239 73.8248L51.8748 76.1554L50.9444 79.4842L51.2484 79.6273C52.5872 78.7367 54.0009 78.288 55.4895 78.2814C56.9781 78.2748 58.4607 78.619 59.9373 79.3141C61.8481 80.2136 63.2863 81.4035 64.2519 82.8837C65.2463 84.3775 65.6898 86.1778 65.5822 88.2846C65.5036 90.4051 64.8101 92.855 63.5017 95.6345C62.2342 98.3271 60.8084 100.379 59.2243 101.791C57.6401 103.203 55.9633 104.023 54.1936 104.251C52.4666 104.463 50.7055 104.147 48.9104 103.302C47.9261 102.839 47.0686 102.294 46.338 101.667C45.5938 101.069 44.9977 100.382 44.5499 99.6048C44.102 98.8281 43.8032 97.9978 43.6535 97.1138L43.3929 96.9911L38.5682 107.24L32.5316 104.399ZM49.1564 97.37C50.3724 97.9424 51.4369 98.1605 52.3498 98.0244C53.3053 97.8729 54.1672 97.3944 54.9354 96.5889C55.7173 95.7544 56.4422 94.6279 57.11 93.2092L57.5802 92.2103C58.2616 90.7627 58.668 89.4862 58.7993 88.3809C58.9442 87.2466 58.7638 86.2774 58.258 85.4735C57.7949 84.6542 56.9553 83.9583 55.7393 83.3859C54.6101 82.8544 53.561 82.6788 52.5918 82.8592C51.6227 83.0396 50.7327 83.5403 49.9219 84.3611C49.1111 85.1819 48.3786 86.2872 47.7244 87.6769L47.3769 88.4152C46.8998 89.4286 46.565 90.4028 46.3725 91.3378C46.1935 92.2439 46.1559 93.075 46.2597 93.8312C46.3925 94.6011 46.6879 95.2884 47.146 95.8931C47.6177 96.4688 48.2879 96.9611 49.1564 97.37ZM62.5926 109.106L73.3459 86.2627L78.3402 88.6137L77.346 91.9654L77.65 92.1085C78.5255 91.6011 79.4546 91.2427 80.4374 91.0333C81.4491 90.8376 82.4863 90.813 83.5491 90.9596C84.6119 91.1062 85.6934 91.4385 86.7936 91.9564C88.2991 92.6651 89.487 93.5603 90.3572 94.6419C91.2274 95.7235 91.6871 97.001 91.7363 98.4742C91.8144 99.9611 91.4038 101.66 90.5042 103.571L83.3081 118.858L77.2715 116.016L84.0179 101.685C84.3586 100.961 84.558 100.312 84.6159 99.738C84.6875 99.1351 84.6246 98.5926 84.4271 98.1106C84.2722 97.6132 83.9827 97.1763 83.5586 96.7999C83.1346 96.4234 82.6185 96.0921 82.0105 95.8059C81.113 95.3834 80.2001 95.2189 79.2719 95.3124C78.3436 95.406 77.4997 95.7338 76.74 96.2957C75.9803 96.8577 75.3687 97.6309 74.9053 98.6152L68.6292 111.948L62.5926 109.106Z" fill="#EBFF00"/>
</svg>
