<svg width="124" height="133" viewBox="0 0 124 133" fill="none" xmlns="http://www.w3.org/2000/svg">
<path d="M24.5013 51.8675L0.0246582 97.8677L77.6336 132.887L123.303 71.7514L102.409 49.1965L113.752 29.9061L83.6035 0.228516L24.5013 51.8675Z" fill="#EBFF00"/>
<path d="M21.0435 90.1842C19.4511 89.4346 18.0997 88.5863 16.9894 87.6391C15.879 86.692 15.0182 85.7032 14.4069 84.6727C13.8092 83.6133 13.4687 82.5334 13.3853 81.4331C13.331 80.3465 13.5627 79.2531 14.0807 78.1529C14.1352 78.0371 14.1897 77.9213 14.2442 77.8054C14.2987 77.6896 14.3541 77.6096 14.4103 77.5653L20.2297 80.3048C20.2025 80.3627 20.1752 80.4206 20.148 80.4785C20.1207 80.5364 20.0935 80.5943 20.0662 80.6522C19.7544 81.3896 19.7067 82.0922 19.9229 82.7599C20.1527 83.3986 20.5674 83.9828 21.1668 84.5126C21.7952 85.056 22.5003 85.5117 23.282 85.8797C23.9769 86.2068 24.6701 86.4623 25.3615 86.6464C26.0956 86.8151 26.7615 86.8279 27.3594 86.6849C27.9862 86.5556 28.429 86.2158 28.688 85.6657C29.0151 84.9709 28.9777 84.299 28.5758 83.65C28.2029 83.0147 27.6077 82.3631 26.7903 81.6954C26.0018 81.0413 25.14 80.3173 24.2051 79.5235C23.3297 78.8285 22.468 78.1045 21.6199 77.3516C20.7854 76.5697 20.0787 75.7419 19.4998 74.8681C18.9497 74.0079 18.6126 73.0711 18.4884 72.0577C18.3778 71.0153 18.6087 69.8862 19.1812 68.6702C19.74 67.4831 20.4844 66.578 21.4144 65.9547C22.358 65.3025 23.4149 64.8981 24.585 64.7416C25.7841 64.5986 27.0529 64.6831 28.3916 64.995C29.7729 65.2915 31.1728 65.7737 32.5915 66.4415C33.9233 67.0684 35.1001 67.7992 36.1219 68.6339C37.1574 69.4397 37.9799 70.322 38.5895 71.281C39.2128 72.211 39.5797 73.1972 39.6903 74.2396C39.8145 75.253 39.6449 76.2519 39.1815 77.2363C39.0861 77.4389 38.9975 77.6271 38.9157 77.8008C38.834 77.9745 38.765 78.0835 38.7088 78.1278L32.9327 75.4088L33.0963 75.0614C33.3416 74.5402 33.3868 74.031 33.2319 73.5336C33.0906 73.0073 32.7636 72.4997 32.251 72.0109C31.7674 71.5356 31.1057 71.1004 30.2661 70.7051C29.6871 70.4325 29.131 70.2238 28.5979 70.079C28.0938 69.9478 27.6271 69.8873 27.1979 69.8974C26.7687 69.9076 26.3915 69.9953 26.0661 70.1604C25.7834 70.3103 25.5602 70.5589 25.3967 70.9064C25.165 71.3985 25.1768 71.8993 25.4323 72.4086C25.7303 72.9025 26.179 73.4144 26.7784 73.9442C27.3779 74.4739 28.0429 75.0522 28.7735 75.6791C29.6795 76.4593 30.6289 77.2599 31.6218 78.081C32.6572 78.8867 33.5581 79.7529 34.3244 80.6795C35.0908 81.6061 35.5735 82.6468 35.7726 83.8016C35.9854 84.9275 35.751 86.2142 35.0696 87.6618C34.4154 89.0515 33.5884 90.0946 32.5885 90.7911C31.6176 91.5012 30.5181 91.9209 29.2901 92.0502C28.0621 92.1795 26.7498 92.0746 25.3532 91.7355C23.9567 91.3964 22.5201 90.8793 21.0435 90.1842ZM32.5314 104.399L46.9237 73.8248L51.8745 76.1554L50.9442 79.4842L51.2482 79.6273C52.587 78.7367 54.0007 78.288 55.4893 78.2814C56.9779 78.2748 58.4605 78.619 59.937 79.3141C61.8479 80.2136 63.2861 81.4035 64.2516 82.8837C65.2461 84.3775 65.6896 86.1778 65.582 88.2846C65.5034 90.4051 64.8099 92.855 63.5015 95.6345C62.234 98.3271 60.8082 100.379 59.224 101.791C57.6399 103.203 55.963 104.023 54.1934 104.251C52.4663 104.463 50.7053 104.147 48.9102 103.302C47.9258 102.839 47.0683 102.294 46.3377 101.667C45.5935 101.069 44.9975 100.382 44.5496 99.6048C44.1018 98.8281 43.803 97.9978 43.6532 97.1138L43.3926 96.9911L38.568 107.24L32.5314 104.399ZM49.1562 97.37C50.3722 97.9424 51.4367 98.1605 52.3496 98.0244C53.3051 97.8729 54.167 97.3944 54.9352 96.5889C55.7171 95.7544 56.4419 94.6279 57.1097 93.2092L57.5799 92.2103C58.2614 90.7627 58.6678 89.4862 58.799 88.3809C58.944 87.2466 58.7635 86.2774 58.2578 85.4735C57.7946 84.6542 56.955 83.9583 55.739 83.3859C54.6099 82.8544 53.5607 82.6788 52.5916 82.8592C51.6225 83.0396 50.7325 83.5403 49.9217 84.3611C49.1108 85.1819 48.3783 86.2872 47.7241 87.6769L47.3766 88.4152C46.8996 89.4286 46.5648 90.4028 46.3722 91.3378C46.1933 92.2439 46.1557 93.075 46.2595 93.8312C46.3923 94.6011 46.6877 95.2884 47.1458 95.8931C47.6175 96.4688 48.2876 96.9611 49.1562 97.37ZM62.5923 109.106L73.3457 86.2627L78.34 88.6137L77.3457 91.9654L77.6497 92.1085C78.5252 91.6011 79.4544 91.2427 80.4371 91.0333C81.4489 90.8376 82.4861 90.813 83.5489 90.9596C84.6116 91.1062 85.6931 91.4385 86.7933 91.9564C88.2989 92.6651 89.4867 93.5603 90.3569 94.6419C91.2271 95.7235 91.6868 97.001 91.736 98.4742C91.8142 99.9611 91.4035 101.66 90.504 103.571L83.3078 118.858L77.2712 116.016L84.0176 101.685C84.3584 100.961 84.5577 100.312 84.6157 99.738C84.6873 99.1351 84.6244 98.5926 84.4268 98.1106C84.2719 97.6132 83.9824 97.1763 83.5584 96.7999C83.1343 96.4234 82.6183 96.0921 82.0103 95.8059C81.1128 95.3834 80.1999 95.2189 79.2716 95.3124C78.3434 95.406 77.4994 95.7338 76.7397 96.2957C75.98 96.8577 75.3685 97.6309 74.9051 98.6152L68.6289 111.948L62.5923 109.106Z" fill="#EBFF00"/>
</svg>
