<svg width="666" height="398" viewBox="0 0 666 398" fill="none" xmlns="http://www.w3.org/2000/svg">
<path d="M566.501 231.867L542.025 277.868L619.634 312.887L665.304 251.751L644.409 229.196L655.752 209.906L625.604 180.229L566.501 231.867Z" fill="#EBFF00"/>
<path d="M563.044 270.184C561.451 269.435 560.1 268.586 558.989 267.639C557.879 266.692 557.018 265.703 556.407 264.673C555.809 263.613 555.469 262.533 555.385 261.433C555.331 260.346 555.563 259.253 556.081 258.153C556.135 258.037 556.19 257.921 556.244 257.805C556.299 257.69 556.354 257.61 556.41 257.565L562.23 260.305C562.202 260.363 562.175 260.421 562.148 260.478C562.121 260.536 562.093 260.594 562.066 260.652C561.754 261.39 561.707 262.092 561.923 262.76C562.153 263.399 562.567 263.983 563.167 264.513C563.795 265.056 564.5 265.512 565.282 265.88C565.977 266.207 566.67 266.462 567.362 266.646C568.096 266.815 568.762 266.828 569.359 266.685C569.986 266.556 570.429 266.216 570.688 265.666C571.015 264.971 570.978 264.299 570.576 263.65C570.203 263.015 569.608 262.363 568.79 261.695C568.002 261.041 567.14 260.317 566.205 259.523C565.33 258.828 564.468 258.105 563.62 257.352C562.785 256.57 562.079 255.742 561.5 254.868C560.95 254.008 560.613 253.071 560.488 252.058C560.378 251.015 560.609 249.886 561.181 248.67C561.74 247.483 562.484 246.578 563.414 245.955C564.358 245.302 565.415 244.898 566.585 244.742C567.784 244.599 569.053 244.683 570.392 244.995C571.773 245.291 573.173 245.774 574.591 246.441C575.923 247.068 577.1 247.799 578.122 248.634C579.157 249.44 579.98 250.322 580.59 251.281C581.213 252.211 581.58 253.197 581.69 254.24C581.814 255.253 581.645 256.252 581.182 257.236C581.086 257.439 580.998 257.627 580.916 257.801C580.834 257.975 580.765 258.084 580.709 258.128L574.933 255.409L575.096 255.061C575.342 254.54 575.387 254.031 575.232 253.534C575.091 253.007 574.764 252.5 574.251 252.011C573.767 251.536 573.106 251.1 572.266 250.705C571.687 250.433 571.131 250.224 570.598 250.079C570.094 249.948 569.627 249.887 569.198 249.897C568.769 249.908 568.391 249.995 568.066 250.16C567.783 250.31 567.56 250.559 567.397 250.906C567.165 251.399 567.177 251.899 567.432 252.409C567.73 252.903 568.179 253.414 568.778 253.944C569.378 254.474 570.043 255.052 570.774 255.679C571.68 256.459 572.629 257.26 573.622 258.081C574.657 258.887 575.558 259.753 576.324 260.679C577.091 261.606 577.573 262.647 577.773 263.802C577.985 264.927 577.751 266.214 577.07 267.662C576.415 269.052 575.588 270.095 574.588 270.791C573.618 271.501 572.518 271.921 571.29 272.05C570.062 272.18 568.75 272.075 567.353 271.735C565.957 271.396 564.52 270.879 563.044 270.184ZM574.531 284.399L588.924 253.825L593.875 256.155L592.944 259.484L593.248 259.627C594.587 258.737 596.001 258.288 597.489 258.281C598.978 258.275 600.46 258.619 601.937 259.314C603.848 260.214 605.286 261.403 606.252 262.884C607.246 264.377 607.69 266.178 607.582 268.285C607.503 270.405 606.81 272.855 605.502 275.634C604.234 278.327 602.808 280.379 601.224 281.791C599.64 283.203 597.963 284.023 596.193 284.251C594.466 284.463 592.705 284.147 590.91 283.302C589.926 282.839 589.068 282.294 588.338 281.667C587.594 281.069 586.997 280.382 586.55 279.605C586.102 278.828 585.803 277.998 585.653 277.114L585.393 276.991L580.568 287.24L574.531 284.399ZM591.156 277.37C592.372 277.942 593.437 278.161 594.35 278.024C595.305 277.873 596.167 277.394 596.935 276.589C597.717 275.754 598.442 274.628 599.11 273.209L599.58 272.21C600.261 270.763 600.668 269.486 600.799 268.381C600.944 267.247 600.764 266.277 600.258 265.473C599.795 264.654 598.955 263.958 597.739 263.386C596.61 262.854 595.561 262.679 594.592 262.859C593.622 263.04 592.732 263.54 591.922 264.361C591.111 265.182 590.378 266.287 589.724 267.677L589.377 268.415C588.9 269.429 588.565 270.403 588.372 271.338C588.193 272.244 588.156 273.075 588.259 273.831C588.392 274.601 588.688 275.288 589.146 275.893C589.617 276.469 590.288 276.961 591.156 277.37ZM604.592 289.106L615.346 266.263L620.34 268.614L619.346 271.965L619.65 272.109C620.525 271.601 621.454 271.243 622.437 271.033C623.449 270.838 624.486 270.813 625.549 270.96C626.612 271.106 627.693 271.438 628.793 271.956C630.299 272.665 631.487 273.56 632.357 274.642C633.227 275.724 633.687 277.001 633.736 278.474C633.814 279.961 633.404 281.66 632.504 283.571L625.308 298.858L619.271 296.016L626.018 281.685C626.358 280.961 626.558 280.312 626.616 279.738C626.687 279.135 626.624 278.593 626.427 278.111C626.272 277.613 625.982 277.176 625.558 276.8C625.134 276.423 624.618 276.092 624.01 275.806C623.113 275.383 622.2 275.219 621.272 275.312C620.343 275.406 619.499 275.734 618.74 276.296C617.98 276.858 617.368 277.631 616.905 278.615L610.629 291.948L604.592 289.106Z" fill="#EBFF00"/>
<path d="M49.9385 374.526L39.5297 227.798H91.5738L97.8191 371.538L49.9385 374.526Z" fill="#EBFF00"/>
<path d="M111.945 371.846L104.519 226.083L187.398 223.108L227.798 237.387L111.945 371.846Z" fill="#EBFF00"/>
<path d="M141.47 284.17C139.294 284.192 137.285 283.785 135.442 282.95C133.641 282.071 132.177 280.742 131.05 278.961L130.602 278.965L129.943 283.516L122.648 283.588L122.192 237.318L131.087 237.23L131.248 253.55L131.632 253.546C132.305 252.558 133.129 251.718 134.103 251.025C135.078 250.333 136.182 249.831 137.417 249.521C138.651 249.167 139.993 248.983 141.443 248.969C144.089 248.943 146.399 249.539 148.373 250.757C150.391 251.974 151.967 253.879 153.102 256.47C154.236 259.019 154.824 262.32 154.864 266.373C154.903 270.427 154.382 273.76 153.298 276.373C152.257 278.986 150.719 280.943 148.684 282.243C146.691 283.5 144.286 284.143 141.47 284.17ZM138.647 276.902C140.438 276.884 141.843 276.529 142.86 275.836C143.92 275.1 144.677 274.026 145.133 272.614C145.588 271.201 145.805 269.428 145.784 267.295L145.77 265.823C145.749 263.69 145.497 261.922 145.013 260.518C144.53 259.072 143.751 258.013 142.678 257.341C141.647 256.626 140.235 256.277 138.443 256.295C137.164 256.307 136.078 256.553 135.187 257.031C134.295 257.466 133.554 258.114 132.966 258.973C132.419 259.789 132.002 260.817 131.716 262.057C131.429 263.298 131.294 264.664 131.308 266.158L131.32 267.31C131.339 269.315 131.612 271.04 132.139 272.486C132.665 273.931 133.465 275.033 134.539 275.79C135.614 276.548 136.983 276.918 138.647 276.902ZM161.583 283.204L161.252 249.542L168.611 249.469L169.367 254.71L169.815 254.706C170.231 253.592 170.775 252.584 171.449 251.681C172.122 250.736 172.968 249.981 173.987 249.416C175.005 248.852 176.197 248.562 177.563 248.549C178.288 248.542 178.95 248.621 179.549 248.785C180.148 248.908 180.597 249.031 180.897 249.156L180.976 257.22L178.224 257.247C176.902 257.26 175.73 257.463 174.71 257.858C173.732 258.209 172.906 258.771 172.231 259.546C171.556 260.321 171.053 261.264 170.722 262.377C170.435 263.489 170.298 264.792 170.313 266.285L170.479 283.116L161.583 283.204Z" fill="#EBFF00"/>
<path d="M4.68994 204.348V175.946L112.559 173.528V204.348H4.68994Z" fill="#EBFF00"/>
<path d="M0 114.601L4.19102 162.809H112.559L107.769 111.889L0 114.601Z" fill="#EBFF00"/>
<path d="M20.2005 121.725L20.1437 115.965L26.8154 115.899L26.8722 121.659L20.2005 121.725ZM20.4306 159.692C19.9827 159.697 19.4704 159.67 18.8938 159.612C18.3492 159.553 17.8042 159.462 17.259 159.34C16.7141 159.249 16.2648 159.125 15.9113 158.969L15.8682 154.601L18.2681 154.577C19.0041 154.57 19.562 154.357 19.9419 153.937C20.3221 153.549 20.5084 152.971 20.5008 152.203L20.2369 125.421L26.9086 125.355L27.1777 152.666C27.1903 153.945 26.9779 155.116 26.5403 156.176C26.1347 157.236 25.4389 158.075 24.453 158.693C23.4993 159.342 22.1586 159.675 20.4306 159.692ZM33.2255 159.086L32.8926 125.296L38.3643 125.242L38.9738 128.644L39.3098 128.641C40.1282 127.257 41.2062 126.238 42.5439 125.585C43.8815 124.932 45.3663 124.597 46.9982 124.581C49.1101 124.56 50.9226 125.006 52.4357 125.919C53.9807 126.832 55.1629 128.261 55.982 130.205C56.8332 132.148 57.274 134.656 57.3042 137.728C57.3336 140.704 56.9419 143.172 56.1291 145.132C55.3164 147.092 54.1628 148.559 52.6684 149.534C51.2056 150.477 49.4822 150.958 47.4983 150.977C46.4104 150.988 45.4012 150.87 44.4707 150.623C43.5405 150.408 42.7049 150.048 41.9639 149.544C41.2229 149.039 40.5928 148.421 40.0736 147.69L39.7856 147.693L39.8972 159.021L33.2255 159.086ZM45.1405 145.528C46.4845 145.515 47.5379 145.249 48.3008 144.729C49.0954 144.177 49.6635 143.372 50.0051 142.312C50.3463 141.221 50.5092 139.891 50.4938 138.323L50.4829 137.219C50.4671 135.619 50.2781 134.293 49.9157 133.241C49.553 132.156 48.9691 131.362 48.1641 130.858C47.3908 130.321 46.3322 130.06 44.9882 130.073C43.7403 130.085 42.7192 130.383 41.9249 130.967C41.1306 131.551 40.5468 132.389 40.1736 133.481C39.8003 134.572 39.6212 135.886 39.6364 137.422L39.6444 138.238C39.6554 139.358 39.7775 140.381 40.0107 141.307C40.2435 142.2 40.571 142.965 40.9933 143.601C41.4476 144.237 42.0125 144.727 42.6879 145.072C43.363 145.386 44.1806 145.538 45.1405 145.528ZM62.3431 150.255L62.0943 125.008L67.614 124.954L68.176 128.404L68.512 128.401C69.0798 127.563 69.7607 126.837 70.5546 126.221C71.3806 125.605 72.304 125.132 73.3248 124.801C74.3456 124.471 75.4639 124.3 76.6799 124.288C78.3438 124.272 79.8027 124.562 81.0567 125.157C82.3106 125.753 83.28 126.703 83.9649 128.009C84.6818 129.314 85.0506 131.022 85.0715 133.134L85.2379 150.029L78.5663 150.095L78.4102 134.256C78.4023 133.456 78.2997 132.785 78.1023 132.243C77.9047 131.669 77.6121 131.208 77.2247 130.859C76.8689 130.479 76.4182 130.211 75.8727 130.057C75.3271 129.902 74.7184 129.828 74.0464 129.835C73.0545 129.844 72.1609 130.093 71.3656 130.581C70.5704 131.069 69.9529 131.731 69.5131 132.567C69.0733 133.404 68.8588 134.366 68.8695 135.454L69.0147 150.189L62.3431 150.255Z" fill="#EBFF00"/>
<path d="M116.579 49.5845L126.967 202.338H180.983L184.248 46.8994L116.579 49.5845Z" fill="#EBFF00"/>
<path d="M123.648 100.558L123.191 54.2242L132.087 54.1366L132.35 80.8233L143.987 66.6919L154.418 66.5891L143.029 79.886L155.326 100.246L145.151 100.346L137.267 86.2151L132.45 90.9988L132.543 100.47L123.648 100.558ZM160.146 100.198L159.814 66.536L167.174 66.4634L167.929 71.7043L168.377 71.6998C168.793 70.5864 169.338 69.5783 170.012 68.6756C170.685 67.7302 171.531 66.9752 172.55 66.4105C173.568 65.8457 174.76 65.5566 176.125 65.5432C176.85 65.536 177.513 65.6149 178.112 65.7796C178.71 65.9017 179.159 66.0253 179.459 66.1504L179.539 74.214L176.787 74.2411C175.464 74.2541 174.293 74.4577 173.273 74.8518C172.295 75.2027 171.468 75.7656 170.793 76.5403C170.118 77.315 169.615 78.2586 169.285 79.3713C168.997 80.4835 168.861 81.7862 168.876 83.2795L169.041 100.111L160.146 100.198Z" fill="#EBFF00"/>
<path d="M205.018 0V205.049L243.892 216.408L290.777 171.871L287.81 0H262.29H205.018Z" fill="#EBFF00"/>
<path d="M303.507 141.369V164.148L325.617 144.406L303.507 141.369Z" fill="#EBFF00"/>
<path d="M304.177 70.3491V129.309H339.314L363.136 111.561V77.5686L304.177 70.3491Z" fill="#EBFF00"/>
<path d="M302.837 0V57.409L397.306 72.3593L395.233 10.4652L302.837 0Z" fill="#EBFF00"/>
<path d="M251.768 109.546C251.768 112.959 250.829 115.669 248.952 117.674C247.075 119.679 244.045 120.682 239.864 120.682L217.336 120.682L217.336 111.786L238.392 111.786C239.501 111.786 240.44 111.658 241.208 111.402C241.933 111.146 242.531 110.783 243 110.314C243.469 109.802 243.811 109.183 244.024 108.458C244.237 107.733 244.344 106.922 244.344 106.026C244.344 104.703 244.024 103.509 243.384 102.442C242.744 101.375 241.869 100.543 240.76 99.946C239.608 99.3486 238.328 99.05 236.92 99.05L217.336 99.05L217.336 90.154L251 90.154L251 97.45L246.392 98.09L246.392 98.538C247.459 99.3486 248.397 100.309 249.208 101.418C250.019 102.485 250.637 103.701 251.064 105.066C251.533 106.431 251.768 107.925 251.768 109.546ZM251.768 68.3565C251.768 70.7031 251.512 72.8151 251 74.6925C250.488 76.5698 249.784 78.1698 248.888 79.4925C247.949 80.8151 246.84 81.8391 245.56 82.5645C244.28 83.2471 242.829 83.5885 241.208 83.5885C241.037 83.5885 240.867 83.5885 240.696 83.5885C240.525 83.5885 240.397 83.5671 240.312 83.5245L240.312 74.9485C240.397 74.9485 240.483 74.9485 240.568 74.9485C240.653 74.9485 240.739 74.9485 240.824 74.9485C241.891 74.9058 242.765 74.5645 243.448 73.9245C244.088 73.2845 244.557 72.4525 244.856 71.4285C245.155 70.3618 245.304 69.2525 245.304 68.1005C245.304 67.0765 245.219 66.0951 245.048 65.1565C244.835 64.1751 244.472 63.3645 243.96 62.7245C243.448 62.0418 242.787 61.7005 241.976 61.7005C240.952 61.7005 240.163 62.1271 239.608 62.9805C239.053 63.7911 238.605 64.8791 238.264 66.2445C237.923 67.5671 237.539 69.0178 237.112 70.5965C236.771 72.0471 236.387 73.4978 235.96 74.9485C235.491 76.3991 234.893 77.7218 234.168 78.9165C233.443 80.0685 232.504 81.0071 231.352 81.7325C230.157 82.4578 228.664 82.8205 226.872 82.8205C225.123 82.8205 223.608 82.4365 222.328 81.6685C221.005 80.9005 219.917 79.8551 219.064 78.5325C218.211 77.1671 217.592 75.5885 217.208 73.7965C216.781 71.9618 216.568 69.9991 216.568 67.9085C216.568 65.9458 216.781 64.1111 217.208 62.4045C217.592 60.6978 218.189 59.2045 219 57.9245C219.768 56.6445 220.749 55.6418 221.944 54.9165C223.096 54.1911 224.397 53.8285 225.848 53.8285C226.147 53.8285 226.424 53.8285 226.68 53.8285C226.936 53.8285 227.107 53.8498 227.192 53.8925L227.192 62.4045L226.68 62.4045C225.912 62.4045 225.272 62.6391 224.76 63.1085C224.205 63.5778 223.779 64.2605 223.48 65.1565C223.181 66.0098 223.032 67.0551 223.032 68.2925C223.032 69.1458 223.096 69.9351 223.224 70.6605C223.352 71.3431 223.544 71.9405 223.8 72.4525C224.056 72.9645 224.376 73.3698 224.76 73.6685C225.101 73.9245 225.528 74.0525 226.04 74.0525C226.765 74.0525 227.363 73.7538 227.832 73.1565C228.259 72.5165 228.621 71.6845 228.92 70.6605C229.219 69.6365 229.539 68.5058 229.88 67.2685C230.307 65.7325 230.733 64.1325 231.16 62.4685C231.544 60.7618 232.077 59.1831 232.76 57.7325C233.443 56.2818 234.424 55.1085 235.704 54.2125C236.941 53.3165 238.627 52.8685 240.76 52.8685C242.808 52.8685 244.536 53.2738 245.944 54.0845C247.352 54.8525 248.483 55.9405 249.336 57.3485C250.189 58.7565 250.808 60.3991 251.192 62.2765C251.576 64.1538 251.768 66.1805 251.768 68.3565ZM251.768 37.53C251.768 38.6393 251.64 39.834 251.384 41.114C251.128 42.3513 250.68 43.5246 250.04 44.634C249.357 45.7433 248.397 46.6606 247.16 47.386C245.88 48.0686 244.259 48.41 242.296 48.41C239.949 48.41 238.008 47.898 236.472 46.874C234.936 45.85 233.741 44.3993 232.888 42.522C231.992 40.602 231.373 38.3193 231.032 35.674C230.691 33.0286 230.52 30.106 230.52 26.906L228.024 26.906C227.043 26.906 226.189 27.0766 225.464 27.418C224.739 27.7166 224.163 28.2713 223.736 29.082C223.309 29.85 223.096 30.938 223.096 32.346C223.096 33.754 223.267 34.906 223.608 35.802C223.949 36.6553 224.397 37.274 224.952 37.658C225.464 37.9993 226.04 38.17 226.68 38.17L227.448 38.17L227.448 46.81C227.235 46.8526 227.043 46.874 226.872 46.874C226.659 46.874 226.403 46.874 226.104 46.874C224.141 46.874 222.456 46.2766 221.048 45.082C219.597 43.8873 218.488 42.202 217.72 40.026C216.952 37.85 216.568 35.3113 216.568 32.41C216.568 29.2953 216.973 26.6926 217.784 24.602C218.595 22.4686 219.789 20.8473 221.368 19.738C222.947 18.586 224.931 18.01 227.32 18.01L242.616 18.01C243.384 18.01 243.96 17.7966 244.344 17.37C244.685 16.9006 244.856 16.3886 244.856 15.834L244.856 13.722L250.68 13.722C250.893 14.1486 251.107 14.81 251.32 15.706C251.576 16.602 251.704 17.69 251.704 18.97C251.704 20.2073 251.512 21.3166 251.128 22.298C250.787 23.2366 250.296 24.026 249.656 24.666C248.973 25.306 248.163 25.754 247.224 26.01L247.224 26.458C248.12 27.1833 248.909 28.0793 249.592 29.146C250.275 30.17 250.808 31.386 251.192 32.794C251.576 34.1593 251.768 35.738 251.768 37.53ZM245.048 34.522C245.048 33.3273 244.877 32.2606 244.536 31.322C244.152 30.3833 243.661 29.594 243.064 28.954C242.424 28.314 241.656 27.8233 240.76 27.482C239.864 27.098 238.904 26.906 237.88 26.906L236.024 26.906C236.024 29.2953 236.195 31.4286 236.536 33.306C236.835 35.1833 237.368 36.6766 238.136 37.786C238.904 38.8526 239.971 39.386 241.336 39.386C242.104 39.386 242.765 39.194 243.32 38.81C243.875 38.426 244.301 37.8713 244.6 37.146C244.899 36.4206 245.048 35.546 245.048 34.522Z" fill="#EBFF00"/>
<path d="M478.309 168.731L475.025 113.966L587.879 100.499L596.537 139.104L528.466 174.716L478.309 168.731Z" fill="#EBFF00"/>
<path d="M510.184 161.316L509.919 134.502L505.12 134.549L505.052 127.701L509.852 127.654L509.815 123.942C509.797 122.108 510.08 120.483 510.663 119.07C511.289 117.613 512.28 116.472 513.638 115.648C514.995 114.824 516.804 114.401 519.065 114.378C519.705 114.372 520.367 114.408 521.051 114.487C521.777 114.565 522.461 114.686 523.102 114.851C523.786 114.972 524.364 115.116 524.835 115.282L524.893 121.169L521.693 121.201C520.669 121.211 519.903 121.475 519.396 121.992C518.932 122.508 518.705 123.257 518.715 124.238L518.747 127.566L524.955 127.505L525.023 134.353L518.815 134.414L519.079 161.229L510.184 161.316ZM529.066 122.536L528.991 114.857L537.822 114.77L537.898 122.449L529.066 122.536ZM529.447 161.126L529.115 127.464L537.946 127.377L538.278 161.039L529.447 161.126Z" fill="#EBFF00"/>
<path d="M396.636 84.1726L374.902 79.7295L373.186 107.869L396.636 93.355V84.1726Z" fill="#EBFF00"/>
<path d="M452.916 91.1195H409.875L408.696 89.3573L409.875 69.6797H450.557L452.916 91.1195Z" fill="#EBFF00"/>
<path d="M424.776 60.2996H408.696L406.686 12.0601L424.776 13.2512V60.2996Z" fill="#EBFF00"/>
<path d="M450.906 16.9911L436.836 13.3999V58.2895H450.906V16.9911Z" fill="#EBFF00"/>
<path d="M505.337 13.3999L460.285 16.9732L464.19 91.1191L512.545 86.6525L505.337 13.3999Z" fill="#EBFF00"/>
<path d="M481.594 233.073L478.31 181.899L528.467 185.789L600.119 148.381L617.734 170.826L545.484 235.168L481.594 233.073Z" fill="#EBFF00"/>
<path d="M218.366 331.023L202.338 298.413L250.718 241.868L316.907 262.81L293.459 337.007L218.366 331.023Z" fill="#EBFF00"/>
<path d="M231.535 321.357C228.121 321.391 225.403 320.479 223.379 318.621C221.356 316.764 220.323 313.744 220.282 309.563L220.06 287.036L228.955 286.949L229.163 308.004C229.174 309.113 229.311 310.05 229.575 310.816C229.838 311.539 230.206 312.132 230.68 312.597C231.197 313.061 231.819 313.396 232.546 313.603C233.274 313.809 234.085 313.907 234.981 313.899C236.304 313.886 237.495 313.554 238.556 312.903C239.616 312.253 240.439 311.37 241.026 310.255C241.612 309.097 241.898 307.814 241.884 306.406L241.691 286.823L250.586 286.736L250.918 320.398L243.622 320.47L242.937 315.868L242.489 315.873C241.689 316.947 240.738 317.895 239.637 318.717C238.578 319.538 237.369 320.169 236.007 320.609C234.647 321.092 233.156 321.341 231.535 321.357ZM259.083 320.317L258.627 273.984L267.522 273.896L267.785 300.583L279.423 286.451L289.854 286.349L278.464 299.645L290.762 320.005L280.586 320.106L272.703 305.975L267.885 310.758L267.979 320.23L259.083 320.317Z" fill="#EBFF00"/>
<path d="M328.431 266.657L305.517 337.14L360.993 349.736L383.906 278.654L364.611 271.456L328.431 266.657Z" fill="#EBFF00"/>
<path d="M395.157 281.397L372.516 353.691L533.381 397.306L552.745 334.273L464.269 293.048L395.157 281.397Z" fill="#EBFF00"/>
<path d="M357.107 146.059L270.677 223.881L348.493 247.228L357.107 146.059Z" fill="#EBFF00"/>
<path d="M360.457 249.401L368.987 139.469L396.636 121.939L390.165 255.938L360.457 249.401Z" fill="#EBFF00"/>
<path d="M452.865 113.899H417.245L413.386 215.068H460.286L452.865 113.899Z" fill="#EBFF00"/>
<path d="M413.386 222.438V259.891L464.305 270.678L460.711 225.434L413.386 222.438Z" fill="#EBFF00"/>
<path d="M483.813 276.577L481.725 245.218H535.995L513.929 290.777L483.813 276.577Z" fill="#EBFF00"/>
<path d="M431.671 351.235C430.591 350.982 429.457 350.584 428.269 350.042C427.123 349.511 426.083 348.807 425.149 347.93C424.225 347.012 423.551 345.868 423.127 344.498C422.755 343.096 422.793 341.439 423.241 339.528C423.777 337.244 424.719 335.471 426.067 334.209C427.415 332.948 429.1 332.116 431.122 331.714C433.196 331.28 435.56 331.199 438.213 331.471C440.867 331.743 443.751 332.244 446.866 332.975L447.436 330.545C447.661 329.589 447.689 328.72 447.523 327.935C447.398 327.161 446.989 326.474 446.297 325.873C445.647 325.282 444.636 324.826 443.266 324.505C441.895 324.183 440.734 324.086 439.784 324.214C438.875 324.351 438.171 324.646 437.67 325.098C437.221 325.519 436.923 326.041 436.777 326.664L436.602 327.411L428.19 325.438C428.197 325.221 428.22 325.029 428.259 324.863C428.308 324.655 428.366 324.406 428.435 324.115C428.883 322.204 429.849 320.7 431.334 319.602C432.828 318.463 434.723 317.767 437.016 317.517C439.31 317.266 441.87 317.472 444.694 318.134C447.727 318.846 450.168 319.835 452.018 321.101C453.91 322.378 455.216 323.911 455.935 325.702C456.696 327.502 456.804 329.565 456.258 331.891L452.765 346.783C452.589 347.53 452.666 348.14 452.993 348.611C453.372 349.051 453.832 349.334 454.372 349.46L456.428 349.943L455.098 355.613C454.634 355.723 453.941 355.78 453.02 355.783C452.089 355.827 451.001 355.704 449.755 355.411C448.55 355.129 447.514 354.688 446.646 354.09C445.81 353.544 445.154 352.886 444.677 352.117C444.21 351.306 443.959 350.414 443.924 349.442L443.488 349.34C442.577 350.046 441.524 350.61 440.33 351.031C439.177 351.462 437.871 351.703 436.413 351.756C434.996 351.818 433.415 351.644 431.671 351.235ZM436.134 345.379C437.297 345.652 438.374 345.73 439.366 345.612C440.368 345.452 441.248 345.155 442.008 344.719C442.777 344.243 443.43 343.607 443.967 342.813C444.545 342.028 444.952 341.137 445.186 340.14L445.609 338.333C443.283 337.788 441.167 337.467 439.262 337.37C437.366 337.232 435.79 337.41 434.535 337.905C433.321 338.409 432.558 339.325 432.246 340.655C432.071 341.402 432.107 342.09 432.354 342.718C432.601 343.345 433.043 343.888 433.681 344.344C434.319 344.8 435.137 345.146 436.134 345.379ZM459.329 356.934L467.017 324.16L474.183 325.841L473.669 331.111L474.106 331.213C474.774 330.23 475.543 329.381 476.413 328.665C477.292 327.907 478.293 327.375 479.417 327.068C480.54 326.762 481.767 326.765 483.096 327.077C483.802 327.243 484.426 327.477 484.969 327.779C485.521 328.04 485.928 328.267 486.19 328.46L484.348 336.311L481.669 335.682C480.381 335.38 479.195 335.299 478.11 335.439C477.077 335.547 476.14 335.897 475.3 336.489C474.46 337.081 473.747 337.878 473.162 338.88C472.618 339.892 472.175 341.125 471.834 342.579L467.99 358.966L459.329 356.934ZM485.61 375.458C484.156 375.117 482.858 374.483 481.716 373.558C480.565 372.675 479.731 371.559 479.215 370.211C478.698 368.862 478.63 367.378 479.01 365.758C479.439 363.93 480.299 362.598 481.591 361.762C482.934 360.894 484.334 360.346 485.79 360.117C484.961 359.353 484.337 358.462 483.919 357.443C483.542 356.435 483.49 355.349 483.763 354.186C484.143 352.566 485.031 351.394 486.428 350.669C487.877 349.914 489.403 349.571 491.008 349.64C489.696 348.324 488.774 346.837 488.242 345.179C487.762 343.488 487.737 341.729 488.165 339.902C488.721 337.534 489.77 335.676 491.313 334.329C492.898 332.992 494.888 332.166 497.285 331.852C499.733 331.505 502.473 331.688 505.505 332.399C506.71 332.682 507.817 333.007 508.826 333.376C509.877 333.754 510.804 334.19 511.608 334.686C513.359 334.132 514.632 333.379 515.425 332.426C516.27 331.44 516.791 330.62 516.988 329.966L525.026 331.851C524.666 333.388 524.063 334.649 523.218 335.634C522.415 336.629 521.407 337.379 520.193 337.883C518.989 338.345 517.621 338.572 516.089 338.563C516.955 339.731 517.527 341.026 517.807 342.45C518.086 343.875 518.05 345.334 517.7 346.83C517.154 349.156 516.125 351.018 514.614 352.417C513.113 353.774 511.221 354.645 508.939 355.03C506.699 355.425 504.146 355.286 501.28 354.614L496.295 353.444C495.298 353.21 494.507 353.222 493.921 353.479C493.344 353.694 492.978 354.134 492.822 354.799C492.696 355.339 492.791 355.865 493.109 356.378C493.478 356.859 494.161 357.217 495.158 357.45L508.804 360.651C511.546 361.295 513.527 362.658 514.747 364.741C516.019 366.792 516.348 369.126 515.734 371.743C515.266 373.737 514.333 375.381 512.934 376.674C511.535 377.967 509.819 378.836 507.787 379.279C505.754 379.723 503.554 379.667 501.187 379.112L485.61 375.458ZM490.583 370.511L502.11 373.215C502.858 373.39 503.556 373.401 504.206 373.246C504.846 373.133 505.391 372.867 505.84 372.446C506.279 372.067 506.572 371.566 506.718 370.943C506.972 369.863 506.829 368.975 506.292 368.279C505.754 367.583 504.986 367.118 503.989 366.885L492.088 364.093C491.091 363.859 490.192 363.955 489.391 364.381C488.632 364.816 488.14 365.511 487.916 366.467C487.692 367.422 487.823 368.264 488.31 368.991C488.828 369.77 489.586 370.277 490.583 370.511ZM501.661 348.787C503.696 349.264 505.34 349.168 506.593 348.497C507.897 347.795 508.754 346.572 509.163 344.827C509.573 343.083 509.344 341.627 508.479 340.46C507.664 339.261 506.24 338.422 504.204 337.945C502.21 337.477 500.561 337.594 499.257 338.296C498.004 338.967 497.173 340.174 496.764 341.919C496.501 343.04 496.5 344.07 496.762 345.008C497.024 345.946 497.564 346.73 498.38 347.36C499.197 347.989 500.29 348.465 501.661 348.787Z" fill="#EBFF00"/>
</svg>
