<svg width="115" height="96" viewBox="0 0 115 96" fill="none" xmlns="http://www.w3.org/2000/svg">
<path d="M16.3659 90.0227L0.338135 57.4121L48.7183 0.867188L114.907 21.8098L91.459 96.0063L16.3659 90.0227Z" fill="#EBFF00"/>
<path d="M29.5347 80.356C26.1215 80.3896 23.403 79.4777 21.3793 77.6202C19.3556 75.7627 18.3231 72.7434 18.2819 68.5623L18.0599 46.0354L26.9555 45.9477L27.163 67.0027C27.1739 68.112 27.3111 69.0493 27.5747 69.8148C27.8378 70.5375 28.2064 71.1313 28.6803 71.596C29.1969 72.0602 29.8189 72.3954 30.5463 72.6016C31.2737 72.8078 32.0854 72.9065 32.9813 72.8976C34.3039 72.8846 35.4954 72.5528 36.5557 71.9024C37.616 71.2519 38.4393 70.3691 39.0257 69.2539C39.6117 68.0961 39.8977 66.8132 39.8838 65.4053L39.6909 45.8222L48.5864 45.7345L48.9181 79.3969L41.6225 79.4688L40.9371 74.8673L40.4891 74.8717C39.689 75.9464 38.7383 76.8944 37.637 77.716C36.5784 78.5371 35.3686 79.1677 34.0075 79.6078C32.6469 80.0906 31.1559 80.34 29.5347 80.356ZM57.0832 79.3165L56.6267 32.9827L65.5222 32.895L65.7852 59.5817L77.4225 45.4504L87.854 45.3476L76.4645 58.6445L88.7617 79.0043L78.5862 79.1046L70.7026 64.9736L65.8855 69.7573L65.9788 79.2288L57.0832 79.3165Z" fill="#EBFF00"/>
</svg>
