<svg width="115" height="96" viewBox="0 0 115 96" fill="none" xmlns="http://www.w3.org/2000/svg">
<path d="M16.3657 90.0232L0.337891 57.4126L48.718 0.867676L114.907 21.8102L91.4587 96.0068L16.3657 90.0232Z" fill="#EBFF00"/>
<path d="M29.5347 80.3567C26.1215 80.3903 23.403 79.4784 21.3793 77.6209C19.3556 75.7634 18.3231 72.7441 18.2819 68.563L18.0599 46.0361L26.9555 45.9484L27.163 67.0034C27.1739 68.1127 27.3111 69.0501 27.5747 69.8155C27.8378 70.5383 28.2064 71.132 28.6803 71.5967C29.1969 72.0609 29.8189 72.3962 30.5463 72.6023C31.2737 72.8085 32.0854 72.9072 32.9813 72.8984C34.3039 72.8853 35.4954 72.5536 36.5557 71.9031C37.616 71.2526 38.4393 70.3698 39.0257 69.2546C39.6117 68.0968 39.8977 66.8139 39.8838 65.406L39.6909 45.8229L48.5864 45.7353L48.9181 79.3976L41.6225 79.4695L40.9371 74.8681L40.4891 74.8725C39.689 75.9471 38.7383 76.8952 37.637 77.7167C36.5784 78.5379 35.3686 79.1685 34.0075 79.6086C32.6469 80.0913 31.1559 80.3407 29.5347 80.3567ZM57.0832 79.3172L56.6267 32.9834L65.5222 32.8958L65.7852 59.5825L77.4225 45.4511L87.854 45.3483L76.4645 58.6452L88.7617 79.005L78.5862 79.1053L70.7026 64.9743L65.8855 69.758L65.9788 79.2295L57.0832 79.3172Z" fill="#EBFF00"/>
</svg>
