<svg width="283" height="285" viewBox="0 0 283 285" fill="none" xmlns="http://www.w3.org/2000/svg">
<path d="M58.4309 153.657L35.5171 224.14L90.9925 236.737L113.906 165.654L94.6105 158.456L58.4309 153.657Z" fill="#EBFF00"/>
<path d="M125.156 168.397L102.516 240.691L263.381 284.306L282.744 221.273L194.269 180.048L125.156 168.397Z" fill="#EBFF00"/>
<path d="M87.1064 33.0586L0.677246 110.881L78.4932 134.228L87.1064 33.0586Z" fill="#EBFF00"/>
<path d="M90.4565 136.401L98.9867 26.4686L126.636 8.93884L120.165 142.938L90.4565 136.401Z" fill="#EBFF00"/>
<path d="M182.864 0.898926H147.245L143.386 102.068H190.285L182.864 0.898926Z" fill="#EBFF00"/>
<path d="M143.386 109.438V146.891L194.305 157.677L190.711 112.434L143.386 109.438Z" fill="#EBFF00"/>
<path d="M213.812 163.577L211.725 132.218H265.995L243.929 177.777L213.812 163.577Z" fill="#EBFF00"/>
</svg>
