<svg width="182" height="525" viewBox="0 0 182 525" fill="none" xmlns="http://www.w3.org/2000/svg">
<rect x="138.044" y="0.918559" width="44.0319" height="529.812" transform="rotate(15 138.044 0.918559)" fill="white" stroke="black" stroke-width="1.5"/>
<path d="M48.4841 460.301L27.2803 454.619L30.1125 444.048C30.5155 442.544 31.1277 441.372 31.9491 440.532C32.7704 439.692 33.7419 439.157 34.8635 438.927C35.97 438.672 37.193 438.723 38.5324 439.082C39.8718 439.441 40.9849 440.027 41.8717 440.838C42.7378 441.645 43.3111 442.638 43.5914 443.817C43.8772 444.976 43.8242 446.287 43.4322 447.75L41.5607 454.736L49.4116 456.84L48.4841 460.301ZM38.5934 453.94L40.4235 447.109C40.7161 446.017 40.6155 445.074 40.1217 444.279C39.6335 443.463 38.8021 442.898 37.6275 442.583C36.8445 442.373 36.1492 442.331 35.5417 442.455C34.9135 442.574 34.3862 442.852 33.9597 443.29C33.5332 443.728 33.215 444.338 33.0053 445.121L31.1751 451.952L38.5934 453.94ZM56.7056 431.099C56.2197 432.912 55.5117 434.401 54.5814 435.565C53.6305 436.724 52.443 437.488 51.0189 437.857C49.5948 438.226 47.9349 438.157 46.0391 437.649L32.779 434.095L33.7065 430.633L47.0593 434.212C48.8108 434.681 50.2539 434.571 51.3884 433.881C52.5229 433.191 53.3165 432.001 53.7692 430.312C54.2274 428.601 54.1405 427.153 53.5084 425.968C52.8818 424.762 51.6927 423.924 49.9412 423.455L36.5883 419.877L37.5158 416.415L50.7759 419.968C52.6717 420.476 54.1412 421.257 55.1843 422.309C56.233 423.341 56.8767 424.607 57.1154 426.106C57.3391 427.58 57.2024 429.244 56.7056 431.099ZM60.0325 417.197L38.8287 411.514L41.8431 400.263C42.1578 399.089 42.6502 398.116 43.3203 397.346C43.9698 396.57 44.7523 396.04 45.6679 395.756C46.5889 395.45 47.5749 395.438 48.6258 395.72C49.4295 395.935 50.1196 396.286 50.6962 396.772C51.2783 397.237 51.7243 397.798 52.0341 398.455C52.3494 399.092 52.532 399.771 52.582 400.491L52.7057 400.524C53.0748 399.806 53.5661 399.208 54.1795 398.732C54.7779 398.23 55.4846 397.9 56.2996 397.743C57.0996 397.56 57.9942 397.601 58.9833 397.866C60.3227 398.225 61.3451 398.819 62.0504 399.649C62.7613 400.458 63.1931 401.402 63.3457 402.481C63.4778 403.554 63.3782 404.709 63.0469 405.945L60.0325 417.197ZM57.9927 412.94L60.0051 405.428C60.259 404.481 60.2188 403.642 59.8843 402.911C59.5348 402.155 58.7934 401.625 57.66 401.321C56.98 401.139 56.3672 401.119 55.8214 401.259C55.2606 401.374 54.7876 401.656 54.4023 402.105C53.9964 402.548 53.6886 403.161 53.4788 403.945L51.5327 411.208L57.9927 412.94ZM48.6272 410.43L50.4988 403.444C50.6754 402.785 50.7036 402.185 50.5833 401.645C50.463 401.104 50.2093 400.65 49.8222 400.281C49.4407 399.892 48.9717 399.623 48.4153 399.473C47.4056 399.203 46.5893 399.282 45.9663 399.712C45.3282 400.115 44.8904 400.76 44.653 401.646L42.7235 408.848L48.6272 410.43ZM65.8472 395.493L44.6434 389.811L45.5709 386.349L63.7765 391.228L66.6086 380.657L69.6069 381.46L65.8472 395.493ZM70.4164 378.439L49.2126 372.756L50.1401 369.294L71.3439 374.977L70.4164 378.439ZM75.5193 360.876C74.9396 363.039 74.0643 364.781 72.8933 366.102C71.7073 367.396 70.1926 368.227 68.3494 368.595C66.5062 368.962 64.3277 368.809 61.8137 368.135C58.1046 367.141 55.5938 365.508 54.2814 363.235C52.9538 360.935 52.7207 358.178 53.582 354.964C54.0567 353.191 54.7806 351.685 55.7536 350.444C56.7321 349.182 57.9266 348.309 59.3371 347.826C60.7325 347.317 62.3472 347.308 64.1811 347.799L63.2371 351.323C62.1037 351.019 61.0924 351.002 60.2029 351.272C59.3135 351.541 58.5544 352.067 57.9255 352.848C57.3021 353.608 56.8358 354.566 56.5266 355.72C56.1402 357.162 56.1002 358.465 56.4066 359.63C56.698 360.768 57.3413 361.747 58.3367 362.565C59.3375 363.364 60.7137 363.998 62.4652 364.467L63.1452 364.649C64.8968 365.119 66.4054 365.258 67.6713 365.067C68.9427 364.856 69.989 364.33 70.8104 363.49C71.6111 362.644 72.2075 361.49 72.5995 360.027C72.9197 358.832 73.013 357.741 72.8795 356.756C72.7254 355.765 72.3306 354.93 71.6952 354.252C71.0652 353.553 70.1836 353.052 69.0502 352.748L69.9612 349.348C71.7951 349.839 73.1993 350.657 74.1736 351.802C75.1535 352.926 75.7414 354.276 75.9374 355.853C76.139 357.408 75.9996 359.083 75.5193 360.876ZM78.0684 349.877L59.0923 335.88L60.2765 331.46L83.7162 328.797L82.7225 332.506L77.3027 333.074L74.6113 343.12L79.0208 346.322L78.0684 349.877ZM71.9731 341.22L74.0599 333.431L67.2095 334.146C67.0075 334.158 66.7251 334.182 66.3622 334.217C65.9994 334.252 65.6029 334.29 65.1728 334.329C64.7481 334.348 64.3207 334.377 63.8905 334.416C63.4453 334.429 63.044 334.443 62.6867 334.458L62.637 334.643C62.9954 334.872 63.4177 335.151 63.9037 335.48C64.3898 335.809 64.8553 336.132 65.3001 336.45C65.7505 336.748 66.1137 337 66.3897 337.206L71.9731 341.22ZM85.1271 323.53L66.8906 318.643L65.0108 325.66L62.0435 324.865L66.7472 307.308L69.7145 308.103L67.8181 315.181L86.0546 320.068L85.1271 323.53ZM88.8065 309.797L67.6027 304.115L68.5302 300.653L89.734 306.335L88.8065 309.797ZM94.0254 291.801C93.4402 293.985 92.5304 295.774 91.2962 297.166C90.0674 298.537 88.5232 299.437 86.6634 299.866C84.8091 300.275 82.656 300.151 80.2038 299.494C77.7311 298.831 75.8042 297.862 74.4233 296.586C73.0273 295.285 72.14 293.733 71.7614 291.931C71.3884 290.108 71.4945 288.104 72.0797 285.92C72.676 283.695 73.5885 281.896 74.8172 280.525C76.046 279.153 77.5875 278.263 79.4417 277.855C81.2809 277.42 83.4368 277.534 85.9096 278.197C88.3617 278.854 90.2858 279.833 91.6818 281.135C93.0833 282.416 93.9734 283.958 94.3519 285.76C94.7305 287.562 94.6216 289.576 94.0254 291.801ZM91.089 291.014C91.3926 289.881 91.5058 288.84 91.4286 287.892C91.3569 286.923 91.0817 286.054 90.603 285.285C90.1299 284.496 89.4504 283.817 88.5648 283.248C87.6846 282.659 86.6057 282.193 85.3281 281.851L84.6481 281.669C83.3293 281.315 82.1415 281.173 81.0847 281.244C80.0334 281.293 79.1055 281.541 78.3011 281.988C77.5022 282.415 76.8295 283.03 76.283 283.833C75.7421 284.616 75.3198 285.574 75.0161 286.707C74.718 287.82 74.6048 288.861 74.6765 289.829C74.7537 290.778 75.0289 291.647 75.5021 292.436C75.9807 293.205 76.6629 293.874 77.5486 294.442C78.4343 295.011 79.5365 295.472 80.8553 295.825L81.5353 296.007C82.8129 296.35 83.9774 296.496 85.0287 296.447C86.08 296.397 87.0051 296.159 87.804 295.733C88.6084 295.286 89.2811 294.671 89.8221 293.888C90.3685 293.085 90.7909 292.127 91.089 291.014ZM97.581 277.046L76.3772 271.363L77.2716 268.025L93.1546 261.912C93.3114 261.822 93.5224 261.735 93.7878 261.651C94.0586 261.547 94.3267 261.453 94.592 261.37C94.8573 261.286 95.0704 261.233 95.2312 261.21L95.2726 261.055C94.9635 260.972 94.6647 260.892 94.3762 260.815C94.0877 260.738 93.7992 260.66 93.5107 260.583L80.2197 257.021L81.1141 253.683L102.318 259.365L101.457 262.58L85.3859 268.775C85.0945 268.874 84.7302 268.997 84.293 269.145C83.8353 269.287 83.4868 269.392 83.2476 269.461L83.2062 269.615C83.4947 269.693 83.7935 269.773 84.1026 269.856C84.391 269.933 84.7001 270.016 85.0298 270.104L98.4754 273.707L97.581 277.046ZM106.137 246.594C105.828 247.748 105.406 248.828 104.872 249.833C104.358 250.844 103.733 251.693 102.997 252.379C102.24 253.06 101.397 253.529 100.466 253.788C99.515 254.041 98.4727 254.016 97.3393 253.712C97.2157 253.679 97.1024 253.648 96.9993 253.621C96.8812 253.567 96.7809 253.529 96.6985 253.507L97.626 250.045C97.6878 250.062 97.7778 250.097 97.8959 250.15C98.0195 250.184 98.1226 250.211 98.205 250.233C98.9674 250.438 99.6773 250.385 100.334 250.075C100.992 249.765 101.562 249.245 102.045 248.513C102.534 247.76 102.919 246.858 103.201 245.808C103.355 245.231 103.473 244.666 103.555 244.114C103.616 243.556 103.632 243.041 103.604 242.57C103.561 242.072 103.47 241.628 103.332 241.238C103.173 240.842 102.953 240.507 102.673 240.233C102.393 239.959 102.037 239.764 101.604 239.648C100.945 239.472 100.346 239.521 99.8085 239.797C99.2764 240.052 98.7778 240.47 98.3126 241.052C97.853 241.614 97.3994 242.276 96.9519 243.04C96.5099 243.783 96.0597 244.557 95.6011 245.361C95.1426 246.166 94.6484 246.939 94.1184 247.68C93.594 248.401 93.0271 249.033 92.4177 249.577C91.7932 250.094 91.0989 250.46 90.3346 250.675C89.5552 250.864 88.6812 250.828 87.7127 250.569C86.7855 250.32 86.0137 249.904 85.3973 249.319C84.781 248.734 84.3353 248.007 84.0601 247.138C83.7643 246.264 83.6307 245.279 83.6595 244.182C83.6883 243.085 83.8766 241.888 84.2244 240.59C84.5225 239.477 84.9277 238.459 85.44 237.536C85.9316 236.608 86.5241 235.839 87.2174 235.23C87.9107 234.621 88.6938 234.212 89.5666 234.004C90.445 233.776 91.4097 233.802 92.4606 234.084L92.8315 234.183L91.9123 237.614L91.5104 237.507C90.851 237.33 90.2422 237.377 89.684 237.647C89.1258 237.917 88.6292 238.369 88.1942 239.003C87.7592 239.638 87.4175 240.418 87.169 241.346C86.8764 242.438 86.7441 243.385 86.772 244.188C86.7793 244.985 86.9263 245.632 87.2129 246.128C87.4845 246.598 87.8881 246.905 88.4239 247.049C89.0215 247.209 89.5685 247.146 90.0649 246.859C90.5407 246.567 90.9981 246.138 91.4371 245.571C91.8817 244.983 92.3249 244.318 92.7669 243.575C93.1938 242.806 93.6441 242.032 94.1177 241.253C94.5762 240.449 95.0677 239.686 95.5921 238.965C96.122 238.223 96.6992 237.594 97.3237 237.077C97.9537 236.539 98.6612 236.165 99.4461 235.956C100.21 235.741 101.077 235.764 102.045 236.023C103.57 236.432 104.715 237.147 105.479 238.169C106.223 239.185 106.631 240.421 106.705 241.877C106.785 243.312 106.595 244.884 106.137 246.594Z" fill="black"/>
</svg>
